%TF.GenerationSoftware,KiCad,Pcbnew,7.0.11-7.0.11~ubuntu22.04.1*%
%TF.CreationDate,2024-06-23T17:04:02+02:00*%
%TF.ProjectId,RaspiZeroHat_12v_v2.5c,52617370-695a-4657-926f-4861745f3132,rev?*%
%TF.SameCoordinates,Original*%
%TF.FileFunction,Drillmap*%
%TF.FilePolarity,Positive*%
%FSLAX45Y45*%
G04 Gerber Fmt 4.5, Leading zero omitted, Abs format (unit mm)*
G04 Created by KiCad (PCBNEW 7.0.11-7.0.11~ubuntu22.04.1) date 2024-06-23 17:04:02*
%MOMM*%
%LPD*%
G01*
G04 APERTURE LIST*
%ADD10C,0.100000*%
%ADD11C,0.200000*%
G04 APERTURE END LIST*
D10*
X16397868Y-10057868D02*
X10220000Y-10180000D01*
X16857868Y-6592132D02*
X16697868Y-9757868D01*
X9510000Y-6380000D02*
X16557868Y-6292132D01*
X9920000Y-9880000D02*
X9210000Y-6680000D01*
X9920000Y-9880000D02*
G75*
G03*
X10220000Y-10180000I300000J0D01*
G01*
X16397868Y-10057868D02*
G75*
G03*
X16697868Y-9757868I0J300000D01*
G01*
X16857868Y-6592132D02*
G75*
G03*
X16557868Y-6292132I-300000J0D01*
G01*
X9510000Y-6380000D02*
G75*
G03*
X9210000Y-6680000I0J-300000D01*
G01*
D11*
X9465777Y-10496484D02*
X9465777Y-10296484D01*
X9465777Y-10296484D02*
X9513396Y-10296484D01*
X9513396Y-10296484D02*
X9541967Y-10306008D01*
X9541967Y-10306008D02*
X9561015Y-10325055D01*
X9561015Y-10325055D02*
X9570539Y-10344103D01*
X9570539Y-10344103D02*
X9580063Y-10382198D01*
X9580063Y-10382198D02*
X9580063Y-10410770D01*
X9580063Y-10410770D02*
X9570539Y-10448865D01*
X9570539Y-10448865D02*
X9561015Y-10467912D01*
X9561015Y-10467912D02*
X9541967Y-10486960D01*
X9541967Y-10486960D02*
X9513396Y-10496484D01*
X9513396Y-10496484D02*
X9465777Y-10496484D01*
X9665777Y-10496484D02*
X9665777Y-10363150D01*
X9665777Y-10401246D02*
X9675301Y-10382198D01*
X9675301Y-10382198D02*
X9684824Y-10372674D01*
X9684824Y-10372674D02*
X9703872Y-10363150D01*
X9703872Y-10363150D02*
X9722920Y-10363150D01*
X9789586Y-10496484D02*
X9789586Y-10363150D01*
X9789586Y-10296484D02*
X9780063Y-10306008D01*
X9780063Y-10306008D02*
X9789586Y-10315531D01*
X9789586Y-10315531D02*
X9799110Y-10306008D01*
X9799110Y-10306008D02*
X9789586Y-10296484D01*
X9789586Y-10296484D02*
X9789586Y-10315531D01*
X9913396Y-10496484D02*
X9894348Y-10486960D01*
X9894348Y-10486960D02*
X9884824Y-10467912D01*
X9884824Y-10467912D02*
X9884824Y-10296484D01*
X10018158Y-10496484D02*
X9999110Y-10486960D01*
X9999110Y-10486960D02*
X9989586Y-10467912D01*
X9989586Y-10467912D02*
X9989586Y-10296484D01*
X10246729Y-10496484D02*
X10246729Y-10296484D01*
X10246729Y-10296484D02*
X10313396Y-10439341D01*
X10313396Y-10439341D02*
X10380063Y-10296484D01*
X10380063Y-10296484D02*
X10380063Y-10496484D01*
X10561015Y-10496484D02*
X10561015Y-10391722D01*
X10561015Y-10391722D02*
X10551491Y-10372674D01*
X10551491Y-10372674D02*
X10532444Y-10363150D01*
X10532444Y-10363150D02*
X10494348Y-10363150D01*
X10494348Y-10363150D02*
X10475301Y-10372674D01*
X10561015Y-10486960D02*
X10541967Y-10496484D01*
X10541967Y-10496484D02*
X10494348Y-10496484D01*
X10494348Y-10496484D02*
X10475301Y-10486960D01*
X10475301Y-10486960D02*
X10465777Y-10467912D01*
X10465777Y-10467912D02*
X10465777Y-10448865D01*
X10465777Y-10448865D02*
X10475301Y-10429817D01*
X10475301Y-10429817D02*
X10494348Y-10420293D01*
X10494348Y-10420293D02*
X10541967Y-10420293D01*
X10541967Y-10420293D02*
X10561015Y-10410770D01*
X10656253Y-10363150D02*
X10656253Y-10563150D01*
X10656253Y-10372674D02*
X10675301Y-10363150D01*
X10675301Y-10363150D02*
X10713396Y-10363150D01*
X10713396Y-10363150D02*
X10732444Y-10372674D01*
X10732444Y-10372674D02*
X10741967Y-10382198D01*
X10741967Y-10382198D02*
X10751491Y-10401246D01*
X10751491Y-10401246D02*
X10751491Y-10458389D01*
X10751491Y-10458389D02*
X10741967Y-10477436D01*
X10741967Y-10477436D02*
X10732444Y-10486960D01*
X10732444Y-10486960D02*
X10713396Y-10496484D01*
X10713396Y-10496484D02*
X10675301Y-10496484D01*
X10675301Y-10496484D02*
X10656253Y-10486960D01*
X10837205Y-10477436D02*
X10846729Y-10486960D01*
X10846729Y-10486960D02*
X10837205Y-10496484D01*
X10837205Y-10496484D02*
X10827682Y-10486960D01*
X10827682Y-10486960D02*
X10837205Y-10477436D01*
X10837205Y-10477436D02*
X10837205Y-10496484D01*
X10837205Y-10372674D02*
X10846729Y-10382198D01*
X10846729Y-10382198D02*
X10837205Y-10391722D01*
X10837205Y-10391722D02*
X10827682Y-10382198D01*
X10827682Y-10382198D02*
X10837205Y-10372674D01*
X10837205Y-10372674D02*
X10837205Y-10391722D01*
M02*
