G04 #@! TF.GenerationSoftware,KiCad,Pcbnew,7.0.11-7.0.11~ubuntu22.04.1*
G04 #@! TF.CreationDate,2024-06-23T17:04:06+02:00*
G04 #@! TF.ProjectId,RaspiZeroHat_12v_v2.5c,52617370-695a-4657-926f-4861745f3132,rev?*
G04 #@! TF.SameCoordinates,Original*
G04 #@! TF.FileFunction,Legend,Top*
G04 #@! TF.FilePolarity,Positive*
%FSLAX46Y46*%
G04 Gerber Fmt 4.6, Leading zero omitted, Abs format (unit mm)*
G04 Created by KiCad (PCBNEW 7.0.11-7.0.11~ubuntu22.04.1) date 2024-06-23 17:04:06*
%MOMM*%
%LPD*%
G01*
G04 APERTURE LIST*
G04 Aperture macros list*
%AMRoundRect*
0 Rectangle with rounded corners*
0 $1 Rounding radius*
0 $2 $3 $4 $5 $6 $7 $8 $9 X,Y pos of 4 corners*
0 Add a 4 corners polygon primitive as box body*
4,1,4,$2,$3,$4,$5,$6,$7,$8,$9,$2,$3,0*
0 Add four circle primitives for the rounded corners*
1,1,$1+$1,$2,$3*
1,1,$1+$1,$4,$5*
1,1,$1+$1,$6,$7*
1,1,$1+$1,$8,$9*
0 Add four rect primitives between the rounded corners*
20,1,$1+$1,$2,$3,$4,$5,0*
20,1,$1+$1,$4,$5,$6,$7,0*
20,1,$1+$1,$6,$7,$8,$9,0*
20,1,$1+$1,$8,$9,$2,$3,0*%
%AMFreePoly0*
4,1,19,0.000000,0.744911,0.071157,0.744911,0.207708,0.704816,0.327430,0.627875,0.420627,0.520320,0.479746,0.390866,0.500000,0.250000,0.500000,-0.250000,0.479746,-0.390866,0.420627,-0.520320,0.327430,-0.627875,0.207708,-0.704816,0.071157,-0.744911,0.000000,-0.744911,0.000000,-0.750000,-0.500000,-0.750000,-0.500000,0.750000,0.000000,0.750000,0.000000,0.744911,0.000000,0.744911,
$1*%
%AMFreePoly1*
4,1,19,0.500000,-0.750000,0.000000,-0.750000,0.000000,-0.744911,-0.071157,-0.744911,-0.207708,-0.704816,-0.327430,-0.627875,-0.420627,-0.520320,-0.479746,-0.390866,-0.500000,-0.250000,-0.500000,0.250000,-0.479746,0.390866,-0.420627,0.520320,-0.327430,0.627875,-0.207708,0.704816,-0.071157,0.744911,0.000000,0.744911,0.000000,0.750000,0.500000,0.750000,0.500000,-0.750000,0.500000,-0.750000,
$1*%
G04 Aperture macros list end*
%ADD10C,0.150000*%
%ADD11C,0.120000*%
%ADD12C,0.400000*%
%ADD13C,0.127000*%
%ADD14C,0.152400*%
%ADD15C,0.330200*%
%ADD16O,1.712000X3.220000*%
%ADD17O,3.220000X1.712000*%
%ADD18RoundRect,0.237500X-0.237500X0.250000X-0.237500X-0.250000X0.237500X-0.250000X0.237500X0.250000X0*%
%ADD19C,2.300000*%
%ADD20R,2.300000X2.300000*%
%ADD21RoundRect,0.237500X-0.237500X0.300000X-0.237500X-0.300000X0.237500X-0.300000X0.237500X0.300000X0*%
%ADD22FreePoly0,180.000000*%
%ADD23FreePoly1,180.000000*%
%ADD24O,1.700000X1.700000*%
%ADD25R,1.700000X1.700000*%
%ADD26C,1.574800*%
%ADD27C,1.295400*%
%ADD28RoundRect,0.102000X0.300000X-0.700000X0.300000X0.700000X-0.300000X0.700000X-0.300000X-0.700000X0*%
G04 APERTURE END LIST*
D10*
X154045180Y-95038095D02*
X154045180Y-94466667D01*
X154045180Y-94752381D02*
X155045180Y-94752381D01*
X155045180Y-94752381D02*
X154902323Y-94657143D01*
X154902323Y-94657143D02*
X154807085Y-94561905D01*
X154807085Y-94561905D02*
X154759466Y-94466667D01*
X154949942Y-95419048D02*
X154997561Y-95466667D01*
X154997561Y-95466667D02*
X155045180Y-95561905D01*
X155045180Y-95561905D02*
X155045180Y-95800000D01*
X155045180Y-95800000D02*
X154997561Y-95895238D01*
X154997561Y-95895238D02*
X154949942Y-95942857D01*
X154949942Y-95942857D02*
X154854704Y-95990476D01*
X154854704Y-95990476D02*
X154759466Y-95990476D01*
X154759466Y-95990476D02*
X154616609Y-95942857D01*
X154616609Y-95942857D02*
X154045180Y-95371429D01*
X154045180Y-95371429D02*
X154045180Y-95990476D01*
X155045180Y-96276191D02*
X154045180Y-96609524D01*
X154045180Y-96609524D02*
X155045180Y-96942857D01*
X154045180Y-98038096D02*
X155045180Y-98038096D01*
X154045180Y-98514286D02*
X155045180Y-98514286D01*
X155045180Y-98514286D02*
X154045180Y-99085714D01*
X154045180Y-99085714D02*
X155045180Y-99085714D01*
D11*
X155901950Y-92700000D02*
X155863855Y-92776190D01*
X155863855Y-92776190D02*
X155863855Y-92890476D01*
X155863855Y-92890476D02*
X155901950Y-93004762D01*
X155901950Y-93004762D02*
X155978140Y-93080952D01*
X155978140Y-93080952D02*
X156054331Y-93119047D01*
X156054331Y-93119047D02*
X156206712Y-93157143D01*
X156206712Y-93157143D02*
X156320998Y-93157143D01*
X156320998Y-93157143D02*
X156473379Y-93119047D01*
X156473379Y-93119047D02*
X156549569Y-93080952D01*
X156549569Y-93080952D02*
X156625760Y-93004762D01*
X156625760Y-93004762D02*
X156663855Y-92890476D01*
X156663855Y-92890476D02*
X156663855Y-92814285D01*
X156663855Y-92814285D02*
X156625760Y-92700000D01*
X156625760Y-92700000D02*
X156587664Y-92661904D01*
X156587664Y-92661904D02*
X156320998Y-92661904D01*
X156320998Y-92661904D02*
X156320998Y-92814285D01*
X156663855Y-92319047D02*
X155863855Y-92319047D01*
X155863855Y-92319047D02*
X156663855Y-91861904D01*
X156663855Y-91861904D02*
X155863855Y-91861904D01*
X156663855Y-91480952D02*
X155863855Y-91480952D01*
X155863855Y-91480952D02*
X155863855Y-91290476D01*
X155863855Y-91290476D02*
X155901950Y-91176190D01*
X155901950Y-91176190D02*
X155978140Y-91100000D01*
X155978140Y-91100000D02*
X156054331Y-91061905D01*
X156054331Y-91061905D02*
X156206712Y-91023809D01*
X156206712Y-91023809D02*
X156320998Y-91023809D01*
X156320998Y-91023809D02*
X156473379Y-91061905D01*
X156473379Y-91061905D02*
X156549569Y-91100000D01*
X156549569Y-91100000D02*
X156625760Y-91176190D01*
X156625760Y-91176190D02*
X156663855Y-91290476D01*
X156663855Y-91290476D02*
X156663855Y-91480952D01*
X156663855Y-89652381D02*
X156663855Y-90109524D01*
X156663855Y-89880952D02*
X155863855Y-89880952D01*
X155863855Y-89880952D02*
X155978140Y-89957143D01*
X155978140Y-89957143D02*
X156054331Y-90033333D01*
X156054331Y-90033333D02*
X156092426Y-90109524D01*
X155940045Y-89347619D02*
X155901950Y-89309523D01*
X155901950Y-89309523D02*
X155863855Y-89233333D01*
X155863855Y-89233333D02*
X155863855Y-89042857D01*
X155863855Y-89042857D02*
X155901950Y-88966666D01*
X155901950Y-88966666D02*
X155940045Y-88928571D01*
X155940045Y-88928571D02*
X156016236Y-88890476D01*
X156016236Y-88890476D02*
X156092426Y-88890476D01*
X156092426Y-88890476D02*
X156206712Y-88928571D01*
X156206712Y-88928571D02*
X156663855Y-89385714D01*
X156663855Y-89385714D02*
X156663855Y-88890476D01*
X155863855Y-88661904D02*
X156663855Y-88395237D01*
X156663855Y-88395237D02*
X155863855Y-88128571D01*
X156663855Y-86795237D02*
X156282902Y-87061904D01*
X156663855Y-87252380D02*
X155863855Y-87252380D01*
X155863855Y-87252380D02*
X155863855Y-86947618D01*
X155863855Y-86947618D02*
X155901950Y-86871428D01*
X155901950Y-86871428D02*
X155940045Y-86833333D01*
X155940045Y-86833333D02*
X156016236Y-86795237D01*
X156016236Y-86795237D02*
X156130521Y-86795237D01*
X156130521Y-86795237D02*
X156206712Y-86833333D01*
X156206712Y-86833333D02*
X156244807Y-86871428D01*
X156244807Y-86871428D02*
X156282902Y-86947618D01*
X156282902Y-86947618D02*
X156282902Y-87252380D01*
X156663855Y-86452380D02*
X155863855Y-86452380D01*
X155863855Y-86452380D02*
X155863855Y-86147618D01*
X155863855Y-86147618D02*
X155901950Y-86071428D01*
X155901950Y-86071428D02*
X155940045Y-86033333D01*
X155940045Y-86033333D02*
X156016236Y-85995237D01*
X156016236Y-85995237D02*
X156130521Y-85995237D01*
X156130521Y-85995237D02*
X156206712Y-86033333D01*
X156206712Y-86033333D02*
X156244807Y-86071428D01*
X156244807Y-86071428D02*
X156282902Y-86147618D01*
X156282902Y-86147618D02*
X156282902Y-86452380D01*
X156663855Y-85652380D02*
X155863855Y-85652380D01*
X155863855Y-85652380D02*
X156435283Y-85385714D01*
X156435283Y-85385714D02*
X155863855Y-85119047D01*
X155863855Y-85119047D02*
X156663855Y-85119047D01*
X156663855Y-84128570D02*
X155863855Y-84128570D01*
X155863855Y-84128570D02*
X155863855Y-83823808D01*
X155863855Y-83823808D02*
X155901950Y-83747618D01*
X155901950Y-83747618D02*
X155940045Y-83709523D01*
X155940045Y-83709523D02*
X156016236Y-83671427D01*
X156016236Y-83671427D02*
X156130521Y-83671427D01*
X156130521Y-83671427D02*
X156206712Y-83709523D01*
X156206712Y-83709523D02*
X156244807Y-83747618D01*
X156244807Y-83747618D02*
X156282902Y-83823808D01*
X156282902Y-83823808D02*
X156282902Y-84128570D01*
X155863855Y-83404761D02*
X156663855Y-83214285D01*
X156663855Y-83214285D02*
X156092426Y-83061904D01*
X156092426Y-83061904D02*
X156663855Y-82909523D01*
X156663855Y-82909523D02*
X155863855Y-82719047D01*
X156663855Y-82414284D02*
X155863855Y-82414284D01*
X155863855Y-82414284D02*
X156435283Y-82147618D01*
X156435283Y-82147618D02*
X155863855Y-81880951D01*
X155863855Y-81880951D02*
X156663855Y-81880951D01*
D10*
X127976191Y-83607200D02*
X128119048Y-83654819D01*
X128119048Y-83654819D02*
X128357143Y-83654819D01*
X128357143Y-83654819D02*
X128452381Y-83607200D01*
X128452381Y-83607200D02*
X128500000Y-83559580D01*
X128500000Y-83559580D02*
X128547619Y-83464342D01*
X128547619Y-83464342D02*
X128547619Y-83369104D01*
X128547619Y-83369104D02*
X128500000Y-83273866D01*
X128500000Y-83273866D02*
X128452381Y-83226247D01*
X128452381Y-83226247D02*
X128357143Y-83178628D01*
X128357143Y-83178628D02*
X128166667Y-83131009D01*
X128166667Y-83131009D02*
X128071429Y-83083390D01*
X128071429Y-83083390D02*
X128023810Y-83035771D01*
X128023810Y-83035771D02*
X127976191Y-82940533D01*
X127976191Y-82940533D02*
X127976191Y-82845295D01*
X127976191Y-82845295D02*
X128023810Y-82750057D01*
X128023810Y-82750057D02*
X128071429Y-82702438D01*
X128071429Y-82702438D02*
X128166667Y-82654819D01*
X128166667Y-82654819D02*
X128404762Y-82654819D01*
X128404762Y-82654819D02*
X128547619Y-82702438D01*
X128976191Y-83654819D02*
X128976191Y-82654819D01*
X128976191Y-82654819D02*
X129357143Y-82654819D01*
X129357143Y-82654819D02*
X129452381Y-82702438D01*
X129452381Y-82702438D02*
X129500000Y-82750057D01*
X129500000Y-82750057D02*
X129547619Y-82845295D01*
X129547619Y-82845295D02*
X129547619Y-82988152D01*
X129547619Y-82988152D02*
X129500000Y-83083390D01*
X129500000Y-83083390D02*
X129452381Y-83131009D01*
X129452381Y-83131009D02*
X129357143Y-83178628D01*
X129357143Y-83178628D02*
X128976191Y-83178628D01*
X129976191Y-83654819D02*
X129976191Y-82654819D01*
X124547619Y-86354819D02*
X124452381Y-86307200D01*
X124452381Y-86307200D02*
X124404762Y-86259580D01*
X124404762Y-86259580D02*
X124357143Y-86164342D01*
X124357143Y-86164342D02*
X124357143Y-85878628D01*
X124357143Y-85878628D02*
X124404762Y-85783390D01*
X124404762Y-85783390D02*
X124452381Y-85735771D01*
X124452381Y-85735771D02*
X124547619Y-85688152D01*
X124547619Y-85688152D02*
X124690476Y-85688152D01*
X124690476Y-85688152D02*
X124785714Y-85735771D01*
X124785714Y-85735771D02*
X124833333Y-85783390D01*
X124833333Y-85783390D02*
X124880952Y-85878628D01*
X124880952Y-85878628D02*
X124880952Y-86164342D01*
X124880952Y-86164342D02*
X124833333Y-86259580D01*
X124833333Y-86259580D02*
X124785714Y-86307200D01*
X124785714Y-86307200D02*
X124690476Y-86354819D01*
X124690476Y-86354819D02*
X124547619Y-86354819D01*
X125309524Y-85688152D02*
X125309524Y-86354819D01*
X125309524Y-85783390D02*
X125357143Y-85735771D01*
X125357143Y-85735771D02*
X125452381Y-85688152D01*
X125452381Y-85688152D02*
X125595238Y-85688152D01*
X125595238Y-85688152D02*
X125690476Y-85735771D01*
X125690476Y-85735771D02*
X125738095Y-85831009D01*
X125738095Y-85831009D02*
X125738095Y-86354819D01*
X126595238Y-86307200D02*
X126500000Y-86354819D01*
X126500000Y-86354819D02*
X126309524Y-86354819D01*
X126309524Y-86354819D02*
X126214286Y-86307200D01*
X126214286Y-86307200D02*
X126166667Y-86211961D01*
X126166667Y-86211961D02*
X126166667Y-85831009D01*
X126166667Y-85831009D02*
X126214286Y-85735771D01*
X126214286Y-85735771D02*
X126309524Y-85688152D01*
X126309524Y-85688152D02*
X126500000Y-85688152D01*
X126500000Y-85688152D02*
X126595238Y-85735771D01*
X126595238Y-85735771D02*
X126642857Y-85831009D01*
X126642857Y-85831009D02*
X126642857Y-85926247D01*
X126642857Y-85926247D02*
X126166667Y-86021485D01*
X126976191Y-85688152D02*
X127166667Y-86354819D01*
X127166667Y-86354819D02*
X127357143Y-85878628D01*
X127357143Y-85878628D02*
X127547619Y-86354819D01*
X127547619Y-86354819D02*
X127738095Y-85688152D01*
X128119048Y-86354819D02*
X128119048Y-85688152D01*
X128119048Y-85354819D02*
X128071429Y-85402438D01*
X128071429Y-85402438D02*
X128119048Y-85450057D01*
X128119048Y-85450057D02*
X128166667Y-85402438D01*
X128166667Y-85402438D02*
X128119048Y-85354819D01*
X128119048Y-85354819D02*
X128119048Y-85450057D01*
X128595238Y-86354819D02*
X128595238Y-85688152D01*
X128595238Y-85878628D02*
X128642857Y-85783390D01*
X128642857Y-85783390D02*
X128690476Y-85735771D01*
X128690476Y-85735771D02*
X128785714Y-85688152D01*
X128785714Y-85688152D02*
X128880952Y-85688152D01*
X129595238Y-86307200D02*
X129500000Y-86354819D01*
X129500000Y-86354819D02*
X129309524Y-86354819D01*
X129309524Y-86354819D02*
X129214286Y-86307200D01*
X129214286Y-86307200D02*
X129166667Y-86211961D01*
X129166667Y-86211961D02*
X129166667Y-85831009D01*
X129166667Y-85831009D02*
X129214286Y-85735771D01*
X129214286Y-85735771D02*
X129309524Y-85688152D01*
X129309524Y-85688152D02*
X129500000Y-85688152D01*
X129500000Y-85688152D02*
X129595238Y-85735771D01*
X129595238Y-85735771D02*
X129642857Y-85831009D01*
X129642857Y-85831009D02*
X129642857Y-85926247D01*
X129642857Y-85926247D02*
X129166667Y-86021485D01*
D11*
X108854761Y-90801950D02*
X108778571Y-90763855D01*
X108778571Y-90763855D02*
X108664285Y-90763855D01*
X108664285Y-90763855D02*
X108549999Y-90801950D01*
X108549999Y-90801950D02*
X108473809Y-90878140D01*
X108473809Y-90878140D02*
X108435714Y-90954331D01*
X108435714Y-90954331D02*
X108397618Y-91106712D01*
X108397618Y-91106712D02*
X108397618Y-91220998D01*
X108397618Y-91220998D02*
X108435714Y-91373379D01*
X108435714Y-91373379D02*
X108473809Y-91449569D01*
X108473809Y-91449569D02*
X108549999Y-91525760D01*
X108549999Y-91525760D02*
X108664285Y-91563855D01*
X108664285Y-91563855D02*
X108740476Y-91563855D01*
X108740476Y-91563855D02*
X108854761Y-91525760D01*
X108854761Y-91525760D02*
X108892857Y-91487664D01*
X108892857Y-91487664D02*
X108892857Y-91220998D01*
X108892857Y-91220998D02*
X108740476Y-91220998D01*
X109235714Y-91563855D02*
X109235714Y-90763855D01*
X109235714Y-90763855D02*
X109692857Y-91563855D01*
X109692857Y-91563855D02*
X109692857Y-90763855D01*
X110073809Y-91563855D02*
X110073809Y-90763855D01*
X110073809Y-90763855D02*
X110264285Y-90763855D01*
X110264285Y-90763855D02*
X110378571Y-90801950D01*
X110378571Y-90801950D02*
X110454761Y-90878140D01*
X110454761Y-90878140D02*
X110492856Y-90954331D01*
X110492856Y-90954331D02*
X110530952Y-91106712D01*
X110530952Y-91106712D02*
X110530952Y-91220998D01*
X110530952Y-91220998D02*
X110492856Y-91373379D01*
X110492856Y-91373379D02*
X110454761Y-91449569D01*
X110454761Y-91449569D02*
X110378571Y-91525760D01*
X110378571Y-91525760D02*
X110264285Y-91563855D01*
X110264285Y-91563855D02*
X110073809Y-91563855D01*
X111369047Y-90763855D02*
X111635714Y-91563855D01*
X111635714Y-91563855D02*
X111902380Y-90763855D01*
X112626190Y-91487664D02*
X112588094Y-91525760D01*
X112588094Y-91525760D02*
X112473809Y-91563855D01*
X112473809Y-91563855D02*
X112397618Y-91563855D01*
X112397618Y-91563855D02*
X112283332Y-91525760D01*
X112283332Y-91525760D02*
X112207142Y-91449569D01*
X112207142Y-91449569D02*
X112169047Y-91373379D01*
X112169047Y-91373379D02*
X112130951Y-91220998D01*
X112130951Y-91220998D02*
X112130951Y-91106712D01*
X112130951Y-91106712D02*
X112169047Y-90954331D01*
X112169047Y-90954331D02*
X112207142Y-90878140D01*
X112207142Y-90878140D02*
X112283332Y-90801950D01*
X112283332Y-90801950D02*
X112397618Y-90763855D01*
X112397618Y-90763855D02*
X112473809Y-90763855D01*
X112473809Y-90763855D02*
X112588094Y-90801950D01*
X112588094Y-90801950D02*
X112626190Y-90840045D01*
X113426190Y-91487664D02*
X113388094Y-91525760D01*
X113388094Y-91525760D02*
X113273809Y-91563855D01*
X113273809Y-91563855D02*
X113197618Y-91563855D01*
X113197618Y-91563855D02*
X113083332Y-91525760D01*
X113083332Y-91525760D02*
X113007142Y-91449569D01*
X113007142Y-91449569D02*
X112969047Y-91373379D01*
X112969047Y-91373379D02*
X112930951Y-91220998D01*
X112930951Y-91220998D02*
X112930951Y-91106712D01*
X112930951Y-91106712D02*
X112969047Y-90954331D01*
X112969047Y-90954331D02*
X113007142Y-90878140D01*
X113007142Y-90878140D02*
X113083332Y-90801950D01*
X113083332Y-90801950D02*
X113197618Y-90763855D01*
X113197618Y-90763855D02*
X113273809Y-90763855D01*
X113273809Y-90763855D02*
X113388094Y-90801950D01*
X113388094Y-90801950D02*
X113426190Y-90840045D01*
X114340475Y-91525760D02*
X114454761Y-91563855D01*
X114454761Y-91563855D02*
X114645237Y-91563855D01*
X114645237Y-91563855D02*
X114721428Y-91525760D01*
X114721428Y-91525760D02*
X114759523Y-91487664D01*
X114759523Y-91487664D02*
X114797618Y-91411474D01*
X114797618Y-91411474D02*
X114797618Y-91335283D01*
X114797618Y-91335283D02*
X114759523Y-91259093D01*
X114759523Y-91259093D02*
X114721428Y-91220998D01*
X114721428Y-91220998D02*
X114645237Y-91182902D01*
X114645237Y-91182902D02*
X114492856Y-91144807D01*
X114492856Y-91144807D02*
X114416666Y-91106712D01*
X114416666Y-91106712D02*
X114378571Y-91068617D01*
X114378571Y-91068617D02*
X114340475Y-90992426D01*
X114340475Y-90992426D02*
X114340475Y-90916236D01*
X114340475Y-90916236D02*
X114378571Y-90840045D01*
X114378571Y-90840045D02*
X114416666Y-90801950D01*
X114416666Y-90801950D02*
X114492856Y-90763855D01*
X114492856Y-90763855D02*
X114683333Y-90763855D01*
X114683333Y-90763855D02*
X114797618Y-90801950D01*
X115140476Y-91563855D02*
X115140476Y-90763855D01*
X115140476Y-90763855D02*
X115330952Y-90763855D01*
X115330952Y-90763855D02*
X115445238Y-90801950D01*
X115445238Y-90801950D02*
X115521428Y-90878140D01*
X115521428Y-90878140D02*
X115559523Y-90954331D01*
X115559523Y-90954331D02*
X115597619Y-91106712D01*
X115597619Y-91106712D02*
X115597619Y-91220998D01*
X115597619Y-91220998D02*
X115559523Y-91373379D01*
X115559523Y-91373379D02*
X115521428Y-91449569D01*
X115521428Y-91449569D02*
X115445238Y-91525760D01*
X115445238Y-91525760D02*
X115330952Y-91563855D01*
X115330952Y-91563855D02*
X115140476Y-91563855D01*
X115902380Y-91335283D02*
X116283333Y-91335283D01*
X115826190Y-91563855D02*
X116092857Y-90763855D01*
X116092857Y-90763855D02*
X116359523Y-91563855D01*
X117197618Y-91525760D02*
X117311904Y-91563855D01*
X117311904Y-91563855D02*
X117502380Y-91563855D01*
X117502380Y-91563855D02*
X117578571Y-91525760D01*
X117578571Y-91525760D02*
X117616666Y-91487664D01*
X117616666Y-91487664D02*
X117654761Y-91411474D01*
X117654761Y-91411474D02*
X117654761Y-91335283D01*
X117654761Y-91335283D02*
X117616666Y-91259093D01*
X117616666Y-91259093D02*
X117578571Y-91220998D01*
X117578571Y-91220998D02*
X117502380Y-91182902D01*
X117502380Y-91182902D02*
X117349999Y-91144807D01*
X117349999Y-91144807D02*
X117273809Y-91106712D01*
X117273809Y-91106712D02*
X117235714Y-91068617D01*
X117235714Y-91068617D02*
X117197618Y-90992426D01*
X117197618Y-90992426D02*
X117197618Y-90916236D01*
X117197618Y-90916236D02*
X117235714Y-90840045D01*
X117235714Y-90840045D02*
X117273809Y-90801950D01*
X117273809Y-90801950D02*
X117349999Y-90763855D01*
X117349999Y-90763855D02*
X117540476Y-90763855D01*
X117540476Y-90763855D02*
X117654761Y-90801950D01*
X118454762Y-91487664D02*
X118416666Y-91525760D01*
X118416666Y-91525760D02*
X118302381Y-91563855D01*
X118302381Y-91563855D02*
X118226190Y-91563855D01*
X118226190Y-91563855D02*
X118111904Y-91525760D01*
X118111904Y-91525760D02*
X118035714Y-91449569D01*
X118035714Y-91449569D02*
X117997619Y-91373379D01*
X117997619Y-91373379D02*
X117959523Y-91220998D01*
X117959523Y-91220998D02*
X117959523Y-91106712D01*
X117959523Y-91106712D02*
X117997619Y-90954331D01*
X117997619Y-90954331D02*
X118035714Y-90878140D01*
X118035714Y-90878140D02*
X118111904Y-90801950D01*
X118111904Y-90801950D02*
X118226190Y-90763855D01*
X118226190Y-90763855D02*
X118302381Y-90763855D01*
X118302381Y-90763855D02*
X118416666Y-90801950D01*
X118416666Y-90801950D02*
X118454762Y-90840045D01*
X119178571Y-91563855D02*
X118797619Y-91563855D01*
X118797619Y-91563855D02*
X118797619Y-90763855D01*
X134521428Y-90801950D02*
X134445238Y-90763855D01*
X134445238Y-90763855D02*
X134330952Y-90763855D01*
X134330952Y-90763855D02*
X134216666Y-90801950D01*
X134216666Y-90801950D02*
X134140476Y-90878140D01*
X134140476Y-90878140D02*
X134102381Y-90954331D01*
X134102381Y-90954331D02*
X134064285Y-91106712D01*
X134064285Y-91106712D02*
X134064285Y-91220998D01*
X134064285Y-91220998D02*
X134102381Y-91373379D01*
X134102381Y-91373379D02*
X134140476Y-91449569D01*
X134140476Y-91449569D02*
X134216666Y-91525760D01*
X134216666Y-91525760D02*
X134330952Y-91563855D01*
X134330952Y-91563855D02*
X134407143Y-91563855D01*
X134407143Y-91563855D02*
X134521428Y-91525760D01*
X134521428Y-91525760D02*
X134559524Y-91487664D01*
X134559524Y-91487664D02*
X134559524Y-91220998D01*
X134559524Y-91220998D02*
X134407143Y-91220998D01*
X134902381Y-91563855D02*
X134902381Y-90763855D01*
X134902381Y-90763855D02*
X135359524Y-91563855D01*
X135359524Y-91563855D02*
X135359524Y-90763855D01*
X135740476Y-91563855D02*
X135740476Y-90763855D01*
X135740476Y-90763855D02*
X135930952Y-90763855D01*
X135930952Y-90763855D02*
X136045238Y-90801950D01*
X136045238Y-90801950D02*
X136121428Y-90878140D01*
X136121428Y-90878140D02*
X136159523Y-90954331D01*
X136159523Y-90954331D02*
X136197619Y-91106712D01*
X136197619Y-91106712D02*
X136197619Y-91220998D01*
X136197619Y-91220998D02*
X136159523Y-91373379D01*
X136159523Y-91373379D02*
X136121428Y-91449569D01*
X136121428Y-91449569D02*
X136045238Y-91525760D01*
X136045238Y-91525760D02*
X135930952Y-91563855D01*
X135930952Y-91563855D02*
X135740476Y-91563855D01*
X137150000Y-91563855D02*
X137150000Y-90763855D01*
X137150000Y-90763855D02*
X137454762Y-90763855D01*
X137454762Y-90763855D02*
X137530952Y-90801950D01*
X137530952Y-90801950D02*
X137569047Y-90840045D01*
X137569047Y-90840045D02*
X137607143Y-90916236D01*
X137607143Y-90916236D02*
X137607143Y-91030521D01*
X137607143Y-91030521D02*
X137569047Y-91106712D01*
X137569047Y-91106712D02*
X137530952Y-91144807D01*
X137530952Y-91144807D02*
X137454762Y-91182902D01*
X137454762Y-91182902D02*
X137150000Y-91182902D01*
X137873809Y-90763855D02*
X138064285Y-91563855D01*
X138064285Y-91563855D02*
X138216666Y-90992426D01*
X138216666Y-90992426D02*
X138369047Y-91563855D01*
X138369047Y-91563855D02*
X138559524Y-90763855D01*
X138864286Y-91563855D02*
X138864286Y-90763855D01*
X138864286Y-90763855D02*
X139130952Y-91335283D01*
X139130952Y-91335283D02*
X139397619Y-90763855D01*
X139397619Y-90763855D02*
X139397619Y-91563855D01*
D10*
X123623809Y-79354819D02*
X123290476Y-78878628D01*
X123052381Y-79354819D02*
X123052381Y-78354819D01*
X123052381Y-78354819D02*
X123433333Y-78354819D01*
X123433333Y-78354819D02*
X123528571Y-78402438D01*
X123528571Y-78402438D02*
X123576190Y-78450057D01*
X123576190Y-78450057D02*
X123623809Y-78545295D01*
X123623809Y-78545295D02*
X123623809Y-78688152D01*
X123623809Y-78688152D02*
X123576190Y-78783390D01*
X123576190Y-78783390D02*
X123528571Y-78831009D01*
X123528571Y-78831009D02*
X123433333Y-78878628D01*
X123433333Y-78878628D02*
X123052381Y-78878628D01*
X124433333Y-79307200D02*
X124338095Y-79354819D01*
X124338095Y-79354819D02*
X124147619Y-79354819D01*
X124147619Y-79354819D02*
X124052381Y-79307200D01*
X124052381Y-79307200D02*
X124004762Y-79211961D01*
X124004762Y-79211961D02*
X124004762Y-78831009D01*
X124004762Y-78831009D02*
X124052381Y-78735771D01*
X124052381Y-78735771D02*
X124147619Y-78688152D01*
X124147619Y-78688152D02*
X124338095Y-78688152D01*
X124338095Y-78688152D02*
X124433333Y-78735771D01*
X124433333Y-78735771D02*
X124480952Y-78831009D01*
X124480952Y-78831009D02*
X124480952Y-78926247D01*
X124480952Y-78926247D02*
X124004762Y-79021485D01*
X125052381Y-79354819D02*
X124957143Y-79307200D01*
X124957143Y-79307200D02*
X124909524Y-79211961D01*
X124909524Y-79211961D02*
X124909524Y-78354819D01*
X125861905Y-79354819D02*
X125861905Y-78831009D01*
X125861905Y-78831009D02*
X125814286Y-78735771D01*
X125814286Y-78735771D02*
X125719048Y-78688152D01*
X125719048Y-78688152D02*
X125528572Y-78688152D01*
X125528572Y-78688152D02*
X125433334Y-78735771D01*
X125861905Y-79307200D02*
X125766667Y-79354819D01*
X125766667Y-79354819D02*
X125528572Y-79354819D01*
X125528572Y-79354819D02*
X125433334Y-79307200D01*
X125433334Y-79307200D02*
X125385715Y-79211961D01*
X125385715Y-79211961D02*
X125385715Y-79116723D01*
X125385715Y-79116723D02*
X125433334Y-79021485D01*
X125433334Y-79021485D02*
X125528572Y-78973866D01*
X125528572Y-78973866D02*
X125766667Y-78973866D01*
X125766667Y-78973866D02*
X125861905Y-78926247D01*
X126338096Y-79354819D02*
X126338096Y-78688152D01*
X126338096Y-78354819D02*
X126290477Y-78402438D01*
X126290477Y-78402438D02*
X126338096Y-78450057D01*
X126338096Y-78450057D02*
X126385715Y-78402438D01*
X126385715Y-78402438D02*
X126338096Y-78354819D01*
X126338096Y-78354819D02*
X126338096Y-78450057D01*
X126766667Y-79307200D02*
X126861905Y-79354819D01*
X126861905Y-79354819D02*
X127052381Y-79354819D01*
X127052381Y-79354819D02*
X127147619Y-79307200D01*
X127147619Y-79307200D02*
X127195238Y-79211961D01*
X127195238Y-79211961D02*
X127195238Y-79164342D01*
X127195238Y-79164342D02*
X127147619Y-79069104D01*
X127147619Y-79069104D02*
X127052381Y-79021485D01*
X127052381Y-79021485D02*
X126909524Y-79021485D01*
X126909524Y-79021485D02*
X126814286Y-78973866D01*
X126814286Y-78973866D02*
X126766667Y-78878628D01*
X126766667Y-78878628D02*
X126766667Y-78831009D01*
X126766667Y-78831009D02*
X126814286Y-78735771D01*
X126814286Y-78735771D02*
X126909524Y-78688152D01*
X126909524Y-78688152D02*
X127052381Y-78688152D01*
X127052381Y-78688152D02*
X127147619Y-78735771D01*
X163154819Y-89680951D02*
X162154819Y-89680951D01*
X162154819Y-89680951D02*
X162154819Y-89299999D01*
X162154819Y-89299999D02*
X162202438Y-89204761D01*
X162202438Y-89204761D02*
X162250057Y-89157142D01*
X162250057Y-89157142D02*
X162345295Y-89109523D01*
X162345295Y-89109523D02*
X162488152Y-89109523D01*
X162488152Y-89109523D02*
X162583390Y-89157142D01*
X162583390Y-89157142D02*
X162631009Y-89204761D01*
X162631009Y-89204761D02*
X162678628Y-89299999D01*
X162678628Y-89299999D02*
X162678628Y-89680951D01*
X162154819Y-88776189D02*
X163154819Y-88538094D01*
X163154819Y-88538094D02*
X162440533Y-88347618D01*
X162440533Y-88347618D02*
X163154819Y-88157142D01*
X163154819Y-88157142D02*
X162154819Y-87919047D01*
X163154819Y-87538094D02*
X162154819Y-87538094D01*
X162154819Y-87538094D02*
X162869104Y-87204761D01*
X162869104Y-87204761D02*
X162154819Y-86871428D01*
X162154819Y-86871428D02*
X163154819Y-86871428D01*
X162250057Y-86442856D02*
X162202438Y-86395237D01*
X162202438Y-86395237D02*
X162154819Y-86299999D01*
X162154819Y-86299999D02*
X162154819Y-86061904D01*
X162154819Y-86061904D02*
X162202438Y-85966666D01*
X162202438Y-85966666D02*
X162250057Y-85919047D01*
X162250057Y-85919047D02*
X162345295Y-85871428D01*
X162345295Y-85871428D02*
X162440533Y-85871428D01*
X162440533Y-85871428D02*
X162583390Y-85919047D01*
X162583390Y-85919047D02*
X163154819Y-86490475D01*
X163154819Y-86490475D02*
X163154819Y-85871428D01*
X112773810Y-86354819D02*
X112773810Y-85354819D01*
X113202381Y-85450057D02*
X113250000Y-85402438D01*
X113250000Y-85402438D02*
X113345238Y-85354819D01*
X113345238Y-85354819D02*
X113583333Y-85354819D01*
X113583333Y-85354819D02*
X113678571Y-85402438D01*
X113678571Y-85402438D02*
X113726190Y-85450057D01*
X113726190Y-85450057D02*
X113773809Y-85545295D01*
X113773809Y-85545295D02*
X113773809Y-85640533D01*
X113773809Y-85640533D02*
X113726190Y-85783390D01*
X113726190Y-85783390D02*
X113154762Y-86354819D01*
X113154762Y-86354819D02*
X113773809Y-86354819D01*
X114773809Y-86259580D02*
X114726190Y-86307200D01*
X114726190Y-86307200D02*
X114583333Y-86354819D01*
X114583333Y-86354819D02*
X114488095Y-86354819D01*
X114488095Y-86354819D02*
X114345238Y-86307200D01*
X114345238Y-86307200D02*
X114250000Y-86211961D01*
X114250000Y-86211961D02*
X114202381Y-86116723D01*
X114202381Y-86116723D02*
X114154762Y-85926247D01*
X114154762Y-85926247D02*
X114154762Y-85783390D01*
X114154762Y-85783390D02*
X114202381Y-85592914D01*
X114202381Y-85592914D02*
X114250000Y-85497676D01*
X114250000Y-85497676D02*
X114345238Y-85402438D01*
X114345238Y-85402438D02*
X114488095Y-85354819D01*
X114488095Y-85354819D02*
X114583333Y-85354819D01*
X114583333Y-85354819D02*
X114726190Y-85402438D01*
X114726190Y-85402438D02*
X114773809Y-85450057D01*
D11*
X107738094Y-81563855D02*
X107357142Y-81563855D01*
X107357142Y-81563855D02*
X107357142Y-80763855D01*
X108004761Y-81144807D02*
X108271427Y-81144807D01*
X108385713Y-81563855D02*
X108004761Y-81563855D01*
X108004761Y-81563855D02*
X108004761Y-80763855D01*
X108004761Y-80763855D02*
X108385713Y-80763855D01*
X108728571Y-81563855D02*
X108728571Y-80763855D01*
X108728571Y-80763855D02*
X108919047Y-80763855D01*
X108919047Y-80763855D02*
X109033333Y-80801950D01*
X109033333Y-80801950D02*
X109109523Y-80878140D01*
X109109523Y-80878140D02*
X109147618Y-80954331D01*
X109147618Y-80954331D02*
X109185714Y-81106712D01*
X109185714Y-81106712D02*
X109185714Y-81220998D01*
X109185714Y-81220998D02*
X109147618Y-81373379D01*
X109147618Y-81373379D02*
X109109523Y-81449569D01*
X109109523Y-81449569D02*
X109033333Y-81525760D01*
X109033333Y-81525760D02*
X108919047Y-81563855D01*
X108919047Y-81563855D02*
X108728571Y-81563855D01*
X110595238Y-81487664D02*
X110557142Y-81525760D01*
X110557142Y-81525760D02*
X110442857Y-81563855D01*
X110442857Y-81563855D02*
X110366666Y-81563855D01*
X110366666Y-81563855D02*
X110252380Y-81525760D01*
X110252380Y-81525760D02*
X110176190Y-81449569D01*
X110176190Y-81449569D02*
X110138095Y-81373379D01*
X110138095Y-81373379D02*
X110099999Y-81220998D01*
X110099999Y-81220998D02*
X110099999Y-81106712D01*
X110099999Y-81106712D02*
X110138095Y-80954331D01*
X110138095Y-80954331D02*
X110176190Y-80878140D01*
X110176190Y-80878140D02*
X110252380Y-80801950D01*
X110252380Y-80801950D02*
X110366666Y-80763855D01*
X110366666Y-80763855D02*
X110442857Y-80763855D01*
X110442857Y-80763855D02*
X110557142Y-80801950D01*
X110557142Y-80801950D02*
X110595238Y-80840045D01*
X110899999Y-81525760D02*
X111014285Y-81563855D01*
X111014285Y-81563855D02*
X111204761Y-81563855D01*
X111204761Y-81563855D02*
X111280952Y-81525760D01*
X111280952Y-81525760D02*
X111319047Y-81487664D01*
X111319047Y-81487664D02*
X111357142Y-81411474D01*
X111357142Y-81411474D02*
X111357142Y-81335283D01*
X111357142Y-81335283D02*
X111319047Y-81259093D01*
X111319047Y-81259093D02*
X111280952Y-81220998D01*
X111280952Y-81220998D02*
X111204761Y-81182902D01*
X111204761Y-81182902D02*
X111052380Y-81144807D01*
X111052380Y-81144807D02*
X110976190Y-81106712D01*
X110976190Y-81106712D02*
X110938095Y-81068617D01*
X110938095Y-81068617D02*
X110899999Y-80992426D01*
X110899999Y-80992426D02*
X110899999Y-80916236D01*
X110899999Y-80916236D02*
X110938095Y-80840045D01*
X110938095Y-80840045D02*
X110976190Y-80801950D01*
X110976190Y-80801950D02*
X111052380Y-80763855D01*
X111052380Y-80763855D02*
X111242857Y-80763855D01*
X111242857Y-80763855D02*
X111357142Y-80801950D01*
X112309524Y-81563855D02*
X112309524Y-80763855D01*
X112309524Y-80763855D02*
X112500000Y-80763855D01*
X112500000Y-80763855D02*
X112614286Y-80801950D01*
X112614286Y-80801950D02*
X112690476Y-80878140D01*
X112690476Y-80878140D02*
X112728571Y-80954331D01*
X112728571Y-80954331D02*
X112766667Y-81106712D01*
X112766667Y-81106712D02*
X112766667Y-81220998D01*
X112766667Y-81220998D02*
X112728571Y-81373379D01*
X112728571Y-81373379D02*
X112690476Y-81449569D01*
X112690476Y-81449569D02*
X112614286Y-81525760D01*
X112614286Y-81525760D02*
X112500000Y-81563855D01*
X112500000Y-81563855D02*
X112309524Y-81563855D01*
X113566667Y-81487664D02*
X113528571Y-81525760D01*
X113528571Y-81525760D02*
X113414286Y-81563855D01*
X113414286Y-81563855D02*
X113338095Y-81563855D01*
X113338095Y-81563855D02*
X113223809Y-81525760D01*
X113223809Y-81525760D02*
X113147619Y-81449569D01*
X113147619Y-81449569D02*
X113109524Y-81373379D01*
X113109524Y-81373379D02*
X113071428Y-81220998D01*
X113071428Y-81220998D02*
X113071428Y-81106712D01*
X113071428Y-81106712D02*
X113109524Y-80954331D01*
X113109524Y-80954331D02*
X113147619Y-80878140D01*
X113147619Y-80878140D02*
X113223809Y-80801950D01*
X113223809Y-80801950D02*
X113338095Y-80763855D01*
X113338095Y-80763855D02*
X113414286Y-80763855D01*
X113414286Y-80763855D02*
X113528571Y-80801950D01*
X113528571Y-80801950D02*
X113566667Y-80840045D01*
X114976191Y-81563855D02*
X114709524Y-81182902D01*
X114519048Y-81563855D02*
X114519048Y-80763855D01*
X114519048Y-80763855D02*
X114823810Y-80763855D01*
X114823810Y-80763855D02*
X114900000Y-80801950D01*
X114900000Y-80801950D02*
X114938095Y-80840045D01*
X114938095Y-80840045D02*
X114976191Y-80916236D01*
X114976191Y-80916236D02*
X114976191Y-81030521D01*
X114976191Y-81030521D02*
X114938095Y-81106712D01*
X114938095Y-81106712D02*
X114900000Y-81144807D01*
X114900000Y-81144807D02*
X114823810Y-81182902D01*
X114823810Y-81182902D02*
X114519048Y-81182902D01*
X115319048Y-81144807D02*
X115585714Y-81144807D01*
X115700000Y-81563855D02*
X115319048Y-81563855D01*
X115319048Y-81563855D02*
X115319048Y-80763855D01*
X115319048Y-80763855D02*
X115700000Y-80763855D01*
X116004762Y-81525760D02*
X116119048Y-81563855D01*
X116119048Y-81563855D02*
X116309524Y-81563855D01*
X116309524Y-81563855D02*
X116385715Y-81525760D01*
X116385715Y-81525760D02*
X116423810Y-81487664D01*
X116423810Y-81487664D02*
X116461905Y-81411474D01*
X116461905Y-81411474D02*
X116461905Y-81335283D01*
X116461905Y-81335283D02*
X116423810Y-81259093D01*
X116423810Y-81259093D02*
X116385715Y-81220998D01*
X116385715Y-81220998D02*
X116309524Y-81182902D01*
X116309524Y-81182902D02*
X116157143Y-81144807D01*
X116157143Y-81144807D02*
X116080953Y-81106712D01*
X116080953Y-81106712D02*
X116042858Y-81068617D01*
X116042858Y-81068617D02*
X116004762Y-80992426D01*
X116004762Y-80992426D02*
X116004762Y-80916236D01*
X116004762Y-80916236D02*
X116042858Y-80840045D01*
X116042858Y-80840045D02*
X116080953Y-80801950D01*
X116080953Y-80801950D02*
X116157143Y-80763855D01*
X116157143Y-80763855D02*
X116347620Y-80763855D01*
X116347620Y-80763855D02*
X116461905Y-80801950D01*
X117376191Y-81525760D02*
X117490477Y-81563855D01*
X117490477Y-81563855D02*
X117680953Y-81563855D01*
X117680953Y-81563855D02*
X117757144Y-81525760D01*
X117757144Y-81525760D02*
X117795239Y-81487664D01*
X117795239Y-81487664D02*
X117833334Y-81411474D01*
X117833334Y-81411474D02*
X117833334Y-81335283D01*
X117833334Y-81335283D02*
X117795239Y-81259093D01*
X117795239Y-81259093D02*
X117757144Y-81220998D01*
X117757144Y-81220998D02*
X117680953Y-81182902D01*
X117680953Y-81182902D02*
X117528572Y-81144807D01*
X117528572Y-81144807D02*
X117452382Y-81106712D01*
X117452382Y-81106712D02*
X117414287Y-81068617D01*
X117414287Y-81068617D02*
X117376191Y-80992426D01*
X117376191Y-80992426D02*
X117376191Y-80916236D01*
X117376191Y-80916236D02*
X117414287Y-80840045D01*
X117414287Y-80840045D02*
X117452382Y-80801950D01*
X117452382Y-80801950D02*
X117528572Y-80763855D01*
X117528572Y-80763855D02*
X117719049Y-80763855D01*
X117719049Y-80763855D02*
X117833334Y-80801950D01*
X118176192Y-81563855D02*
X118176192Y-80763855D01*
X118176192Y-80763855D02*
X118366668Y-80763855D01*
X118366668Y-80763855D02*
X118480954Y-80801950D01*
X118480954Y-80801950D02*
X118557144Y-80878140D01*
X118557144Y-80878140D02*
X118595239Y-80954331D01*
X118595239Y-80954331D02*
X118633335Y-81106712D01*
X118633335Y-81106712D02*
X118633335Y-81220998D01*
X118633335Y-81220998D02*
X118595239Y-81373379D01*
X118595239Y-81373379D02*
X118557144Y-81449569D01*
X118557144Y-81449569D02*
X118480954Y-81525760D01*
X118480954Y-81525760D02*
X118366668Y-81563855D01*
X118366668Y-81563855D02*
X118176192Y-81563855D01*
X118938096Y-81335283D02*
X119319049Y-81335283D01*
X118861906Y-81563855D02*
X119128573Y-80763855D01*
X119128573Y-80763855D02*
X119395239Y-81563855D01*
X120728573Y-81487664D02*
X120690477Y-81525760D01*
X120690477Y-81525760D02*
X120576192Y-81563855D01*
X120576192Y-81563855D02*
X120500001Y-81563855D01*
X120500001Y-81563855D02*
X120385715Y-81525760D01*
X120385715Y-81525760D02*
X120309525Y-81449569D01*
X120309525Y-81449569D02*
X120271430Y-81373379D01*
X120271430Y-81373379D02*
X120233334Y-81220998D01*
X120233334Y-81220998D02*
X120233334Y-81106712D01*
X120233334Y-81106712D02*
X120271430Y-80954331D01*
X120271430Y-80954331D02*
X120309525Y-80878140D01*
X120309525Y-80878140D02*
X120385715Y-80801950D01*
X120385715Y-80801950D02*
X120500001Y-80763855D01*
X120500001Y-80763855D02*
X120576192Y-80763855D01*
X120576192Y-80763855D02*
X120690477Y-80801950D01*
X120690477Y-80801950D02*
X120728573Y-80840045D01*
X121452382Y-81563855D02*
X121071430Y-81563855D01*
X121071430Y-81563855D02*
X121071430Y-80763855D01*
X121719049Y-81563855D02*
X121719049Y-80763855D01*
X122176192Y-81563855D02*
X121833334Y-81106712D01*
X122176192Y-80763855D02*
X121719049Y-81220998D01*
X123509525Y-80763855D02*
X123128573Y-80763855D01*
X123128573Y-80763855D02*
X123090477Y-81144807D01*
X123090477Y-81144807D02*
X123128573Y-81106712D01*
X123128573Y-81106712D02*
X123204763Y-81068617D01*
X123204763Y-81068617D02*
X123395239Y-81068617D01*
X123395239Y-81068617D02*
X123471430Y-81106712D01*
X123471430Y-81106712D02*
X123509525Y-81144807D01*
X123509525Y-81144807D02*
X123547620Y-81220998D01*
X123547620Y-81220998D02*
X123547620Y-81411474D01*
X123547620Y-81411474D02*
X123509525Y-81487664D01*
X123509525Y-81487664D02*
X123471430Y-81525760D01*
X123471430Y-81525760D02*
X123395239Y-81563855D01*
X123395239Y-81563855D02*
X123204763Y-81563855D01*
X123204763Y-81563855D02*
X123128573Y-81525760D01*
X123128573Y-81525760D02*
X123090477Y-81487664D01*
X123776192Y-80763855D02*
X124042859Y-81563855D01*
X124042859Y-81563855D02*
X124309525Y-80763855D01*
X125604763Y-80801950D02*
X125528573Y-80763855D01*
X125528573Y-80763855D02*
X125414287Y-80763855D01*
X125414287Y-80763855D02*
X125300001Y-80801950D01*
X125300001Y-80801950D02*
X125223811Y-80878140D01*
X125223811Y-80878140D02*
X125185716Y-80954331D01*
X125185716Y-80954331D02*
X125147620Y-81106712D01*
X125147620Y-81106712D02*
X125147620Y-81220998D01*
X125147620Y-81220998D02*
X125185716Y-81373379D01*
X125185716Y-81373379D02*
X125223811Y-81449569D01*
X125223811Y-81449569D02*
X125300001Y-81525760D01*
X125300001Y-81525760D02*
X125414287Y-81563855D01*
X125414287Y-81563855D02*
X125490478Y-81563855D01*
X125490478Y-81563855D02*
X125604763Y-81525760D01*
X125604763Y-81525760D02*
X125642859Y-81487664D01*
X125642859Y-81487664D02*
X125642859Y-81220998D01*
X125642859Y-81220998D02*
X125490478Y-81220998D01*
X125985716Y-81563855D02*
X125985716Y-80763855D01*
X125985716Y-80763855D02*
X126442859Y-81563855D01*
X126442859Y-81563855D02*
X126442859Y-80763855D01*
X126823811Y-81563855D02*
X126823811Y-80763855D01*
X126823811Y-80763855D02*
X127014287Y-80763855D01*
X127014287Y-80763855D02*
X127128573Y-80801950D01*
X127128573Y-80801950D02*
X127204763Y-80878140D01*
X127204763Y-80878140D02*
X127242858Y-80954331D01*
X127242858Y-80954331D02*
X127280954Y-81106712D01*
X127280954Y-81106712D02*
X127280954Y-81220998D01*
X127280954Y-81220998D02*
X127242858Y-81373379D01*
X127242858Y-81373379D02*
X127204763Y-81449569D01*
X127204763Y-81449569D02*
X127128573Y-81525760D01*
X127128573Y-81525760D02*
X127014287Y-81563855D01*
X127014287Y-81563855D02*
X126823811Y-81563855D01*
D10*
X105302561Y-81196302D02*
X105350180Y-81101064D01*
X105350180Y-81101064D02*
X105350180Y-80958207D01*
X105350180Y-80958207D02*
X105302561Y-80815350D01*
X105302561Y-80815350D02*
X105207323Y-80720112D01*
X105207323Y-80720112D02*
X105112085Y-80672493D01*
X105112085Y-80672493D02*
X104921609Y-80624874D01*
X104921609Y-80624874D02*
X104778752Y-80624874D01*
X104778752Y-80624874D02*
X104588276Y-80672493D01*
X104588276Y-80672493D02*
X104493038Y-80720112D01*
X104493038Y-80720112D02*
X104397800Y-80815350D01*
X104397800Y-80815350D02*
X104350180Y-80958207D01*
X104350180Y-80958207D02*
X104350180Y-81053445D01*
X104350180Y-81053445D02*
X104397800Y-81196302D01*
X104397800Y-81196302D02*
X104445419Y-81243921D01*
X104445419Y-81243921D02*
X104778752Y-81243921D01*
X104778752Y-81243921D02*
X104778752Y-81053445D01*
X104350180Y-81672493D02*
X105350180Y-81672493D01*
X105350180Y-81672493D02*
X105350180Y-82053445D01*
X105350180Y-82053445D02*
X105302561Y-82148683D01*
X105302561Y-82148683D02*
X105254942Y-82196302D01*
X105254942Y-82196302D02*
X105159704Y-82243921D01*
X105159704Y-82243921D02*
X105016847Y-82243921D01*
X105016847Y-82243921D02*
X104921609Y-82196302D01*
X104921609Y-82196302D02*
X104873990Y-82148683D01*
X104873990Y-82148683D02*
X104826371Y-82053445D01*
X104826371Y-82053445D02*
X104826371Y-81672493D01*
X104350180Y-82815350D02*
X104397800Y-82720112D01*
X104397800Y-82720112D02*
X104493038Y-82672493D01*
X104493038Y-82672493D02*
X105350180Y-82672493D01*
X104350180Y-83624874D02*
X104873990Y-83624874D01*
X104873990Y-83624874D02*
X104969228Y-83577255D01*
X104969228Y-83577255D02*
X105016847Y-83482017D01*
X105016847Y-83482017D02*
X105016847Y-83291541D01*
X105016847Y-83291541D02*
X104969228Y-83196303D01*
X104397800Y-83624874D02*
X104350180Y-83529636D01*
X104350180Y-83529636D02*
X104350180Y-83291541D01*
X104350180Y-83291541D02*
X104397800Y-83196303D01*
X104397800Y-83196303D02*
X104493038Y-83148684D01*
X104493038Y-83148684D02*
X104588276Y-83148684D01*
X104588276Y-83148684D02*
X104683514Y-83196303D01*
X104683514Y-83196303D02*
X104731133Y-83291541D01*
X104731133Y-83291541D02*
X104731133Y-83529636D01*
X104731133Y-83529636D02*
X104778752Y-83624874D01*
X105016847Y-84101065D02*
X104350180Y-84101065D01*
X104921609Y-84101065D02*
X104969228Y-84148684D01*
X104969228Y-84148684D02*
X105016847Y-84243922D01*
X105016847Y-84243922D02*
X105016847Y-84386779D01*
X105016847Y-84386779D02*
X104969228Y-84482017D01*
X104969228Y-84482017D02*
X104873990Y-84529636D01*
X104873990Y-84529636D02*
X104350180Y-84529636D01*
X105016847Y-84862970D02*
X105016847Y-85243922D01*
X105350180Y-85005827D02*
X104493038Y-85005827D01*
X104493038Y-85005827D02*
X104397800Y-85053446D01*
X104397800Y-85053446D02*
X104350180Y-85148684D01*
X104350180Y-85148684D02*
X104350180Y-85243922D01*
X104350180Y-86005827D02*
X104873990Y-86005827D01*
X104873990Y-86005827D02*
X104969228Y-85958208D01*
X104969228Y-85958208D02*
X105016847Y-85862970D01*
X105016847Y-85862970D02*
X105016847Y-85672494D01*
X105016847Y-85672494D02*
X104969228Y-85577256D01*
X104397800Y-86005827D02*
X104350180Y-85910589D01*
X104350180Y-85910589D02*
X104350180Y-85672494D01*
X104350180Y-85672494D02*
X104397800Y-85577256D01*
X104397800Y-85577256D02*
X104493038Y-85529637D01*
X104493038Y-85529637D02*
X104588276Y-85529637D01*
X104588276Y-85529637D02*
X104683514Y-85577256D01*
X104683514Y-85577256D02*
X104731133Y-85672494D01*
X104731133Y-85672494D02*
X104731133Y-85910589D01*
X104731133Y-85910589D02*
X104778752Y-86005827D01*
X103406847Y-81101064D02*
X102740180Y-81101064D01*
X103406847Y-80672493D02*
X102883038Y-80672493D01*
X102883038Y-80672493D02*
X102787800Y-80720112D01*
X102787800Y-80720112D02*
X102740180Y-80815350D01*
X102740180Y-80815350D02*
X102740180Y-80958207D01*
X102740180Y-80958207D02*
X102787800Y-81053445D01*
X102787800Y-81053445D02*
X102835419Y-81101064D01*
X102740180Y-81577255D02*
X103740180Y-81577255D01*
X103263990Y-81577255D02*
X103263990Y-82148683D01*
X102740180Y-82148683D02*
X103740180Y-82148683D01*
X103025895Y-82577255D02*
X103025895Y-83053445D01*
X102740180Y-82482017D02*
X103740180Y-82815350D01*
X103740180Y-82815350D02*
X102740180Y-83148683D01*
X103740180Y-83339160D02*
X103740180Y-83910588D01*
X102740180Y-83624874D02*
X103740180Y-83624874D01*
X103121133Y-84243922D02*
X103121133Y-85005827D01*
X102740180Y-84624874D02*
X103502085Y-84624874D01*
X103406847Y-86148684D02*
X102740180Y-86386779D01*
X102740180Y-86386779D02*
X103406847Y-86624874D01*
X103644942Y-86958208D02*
X103692561Y-87005827D01*
X103692561Y-87005827D02*
X103740180Y-87101065D01*
X103740180Y-87101065D02*
X103740180Y-87339160D01*
X103740180Y-87339160D02*
X103692561Y-87434398D01*
X103692561Y-87434398D02*
X103644942Y-87482017D01*
X103644942Y-87482017D02*
X103549704Y-87529636D01*
X103549704Y-87529636D02*
X103454466Y-87529636D01*
X103454466Y-87529636D02*
X103311609Y-87482017D01*
X103311609Y-87482017D02*
X102740180Y-86910589D01*
X102740180Y-86910589D02*
X102740180Y-87529636D01*
X102835419Y-87958208D02*
X102787800Y-88005827D01*
X102787800Y-88005827D02*
X102740180Y-87958208D01*
X102740180Y-87958208D02*
X102787800Y-87910589D01*
X102787800Y-87910589D02*
X102835419Y-87958208D01*
X102835419Y-87958208D02*
X102740180Y-87958208D01*
X103740180Y-88624874D02*
X103740180Y-88720112D01*
X103740180Y-88720112D02*
X103692561Y-88815350D01*
X103692561Y-88815350D02*
X103644942Y-88862969D01*
X103644942Y-88862969D02*
X103549704Y-88910588D01*
X103549704Y-88910588D02*
X103359228Y-88958207D01*
X103359228Y-88958207D02*
X103121133Y-88958207D01*
X103121133Y-88958207D02*
X102930657Y-88910588D01*
X102930657Y-88910588D02*
X102835419Y-88862969D01*
X102835419Y-88862969D02*
X102787800Y-88815350D01*
X102787800Y-88815350D02*
X102740180Y-88720112D01*
X102740180Y-88720112D02*
X102740180Y-88624874D01*
X102740180Y-88624874D02*
X102787800Y-88529636D01*
X102787800Y-88529636D02*
X102835419Y-88482017D01*
X102835419Y-88482017D02*
X102930657Y-88434398D01*
X102930657Y-88434398D02*
X103121133Y-88386779D01*
X103121133Y-88386779D02*
X103359228Y-88386779D01*
X103359228Y-88386779D02*
X103549704Y-88434398D01*
X103549704Y-88434398D02*
X103644942Y-88482017D01*
X103644942Y-88482017D02*
X103692561Y-88529636D01*
X103692561Y-88529636D02*
X103740180Y-88624874D01*
D11*
X107804760Y-76501950D02*
X107728570Y-76463855D01*
X107728570Y-76463855D02*
X107614284Y-76463855D01*
X107614284Y-76463855D02*
X107499998Y-76501950D01*
X107499998Y-76501950D02*
X107423808Y-76578140D01*
X107423808Y-76578140D02*
X107385713Y-76654331D01*
X107385713Y-76654331D02*
X107347617Y-76806712D01*
X107347617Y-76806712D02*
X107347617Y-76920998D01*
X107347617Y-76920998D02*
X107385713Y-77073379D01*
X107385713Y-77073379D02*
X107423808Y-77149569D01*
X107423808Y-77149569D02*
X107499998Y-77225760D01*
X107499998Y-77225760D02*
X107614284Y-77263855D01*
X107614284Y-77263855D02*
X107690475Y-77263855D01*
X107690475Y-77263855D02*
X107804760Y-77225760D01*
X107804760Y-77225760D02*
X107842856Y-77187664D01*
X107842856Y-77187664D02*
X107842856Y-76920998D01*
X107842856Y-76920998D02*
X107690475Y-76920998D01*
X108185713Y-77263855D02*
X108185713Y-76463855D01*
X108185713Y-76463855D02*
X108642856Y-77263855D01*
X108642856Y-77263855D02*
X108642856Y-76463855D01*
X109023808Y-77263855D02*
X109023808Y-76463855D01*
X109023808Y-76463855D02*
X109214284Y-76463855D01*
X109214284Y-76463855D02*
X109328570Y-76501950D01*
X109328570Y-76501950D02*
X109404760Y-76578140D01*
X109404760Y-76578140D02*
X109442855Y-76654331D01*
X109442855Y-76654331D02*
X109480951Y-76806712D01*
X109480951Y-76806712D02*
X109480951Y-76920998D01*
X109480951Y-76920998D02*
X109442855Y-77073379D01*
X109442855Y-77073379D02*
X109404760Y-77149569D01*
X109404760Y-77149569D02*
X109328570Y-77225760D01*
X109328570Y-77225760D02*
X109214284Y-77263855D01*
X109214284Y-77263855D02*
X109023808Y-77263855D01*
X110814284Y-76463855D02*
X110433332Y-76463855D01*
X110433332Y-76463855D02*
X110395236Y-76844807D01*
X110395236Y-76844807D02*
X110433332Y-76806712D01*
X110433332Y-76806712D02*
X110509522Y-76768617D01*
X110509522Y-76768617D02*
X110699998Y-76768617D01*
X110699998Y-76768617D02*
X110776189Y-76806712D01*
X110776189Y-76806712D02*
X110814284Y-76844807D01*
X110814284Y-76844807D02*
X110852379Y-76920998D01*
X110852379Y-76920998D02*
X110852379Y-77111474D01*
X110852379Y-77111474D02*
X110814284Y-77187664D01*
X110814284Y-77187664D02*
X110776189Y-77225760D01*
X110776189Y-77225760D02*
X110699998Y-77263855D01*
X110699998Y-77263855D02*
X110509522Y-77263855D01*
X110509522Y-77263855D02*
X110433332Y-77225760D01*
X110433332Y-77225760D02*
X110395236Y-77187664D01*
X111080951Y-76463855D02*
X111347618Y-77263855D01*
X111347618Y-77263855D02*
X111614284Y-76463855D01*
X113557142Y-77263855D02*
X113290475Y-76882902D01*
X113099999Y-77263855D02*
X113099999Y-76463855D01*
X113099999Y-76463855D02*
X113404761Y-76463855D01*
X113404761Y-76463855D02*
X113480951Y-76501950D01*
X113480951Y-76501950D02*
X113519046Y-76540045D01*
X113519046Y-76540045D02*
X113557142Y-76616236D01*
X113557142Y-76616236D02*
X113557142Y-76730521D01*
X113557142Y-76730521D02*
X113519046Y-76806712D01*
X113519046Y-76806712D02*
X113480951Y-76844807D01*
X113480951Y-76844807D02*
X113404761Y-76882902D01*
X113404761Y-76882902D02*
X113099999Y-76882902D01*
X114319046Y-77263855D02*
X113861903Y-77263855D01*
X114090475Y-77263855D02*
X114090475Y-76463855D01*
X114090475Y-76463855D02*
X114014284Y-76578140D01*
X114014284Y-76578140D02*
X113938094Y-76654331D01*
X113938094Y-76654331D02*
X113861903Y-76692426D01*
X116338095Y-77263855D02*
X116071428Y-76882902D01*
X115880952Y-77263855D02*
X115880952Y-76463855D01*
X115880952Y-76463855D02*
X116185714Y-76463855D01*
X116185714Y-76463855D02*
X116261904Y-76501950D01*
X116261904Y-76501950D02*
X116299999Y-76540045D01*
X116299999Y-76540045D02*
X116338095Y-76616236D01*
X116338095Y-76616236D02*
X116338095Y-76730521D01*
X116338095Y-76730521D02*
X116299999Y-76806712D01*
X116299999Y-76806712D02*
X116261904Y-76844807D01*
X116261904Y-76844807D02*
X116185714Y-76882902D01*
X116185714Y-76882902D02*
X115880952Y-76882902D01*
X116642856Y-76540045D02*
X116680952Y-76501950D01*
X116680952Y-76501950D02*
X116757142Y-76463855D01*
X116757142Y-76463855D02*
X116947618Y-76463855D01*
X116947618Y-76463855D02*
X117023809Y-76501950D01*
X117023809Y-76501950D02*
X117061904Y-76540045D01*
X117061904Y-76540045D02*
X117099999Y-76616236D01*
X117099999Y-76616236D02*
X117099999Y-76692426D01*
X117099999Y-76692426D02*
X117061904Y-76806712D01*
X117061904Y-76806712D02*
X116604761Y-77263855D01*
X116604761Y-77263855D02*
X117099999Y-77263855D01*
X118509524Y-77263855D02*
X118242857Y-76882902D01*
X118052381Y-77263855D02*
X118052381Y-76463855D01*
X118052381Y-76463855D02*
X118357143Y-76463855D01*
X118357143Y-76463855D02*
X118433333Y-76501950D01*
X118433333Y-76501950D02*
X118471428Y-76540045D01*
X118471428Y-76540045D02*
X118509524Y-76616236D01*
X118509524Y-76616236D02*
X118509524Y-76730521D01*
X118509524Y-76730521D02*
X118471428Y-76806712D01*
X118471428Y-76806712D02*
X118433333Y-76844807D01*
X118433333Y-76844807D02*
X118357143Y-76882902D01*
X118357143Y-76882902D02*
X118052381Y-76882902D01*
X118776190Y-76463855D02*
X119271428Y-76463855D01*
X119271428Y-76463855D02*
X119004762Y-76768617D01*
X119004762Y-76768617D02*
X119119047Y-76768617D01*
X119119047Y-76768617D02*
X119195238Y-76806712D01*
X119195238Y-76806712D02*
X119233333Y-76844807D01*
X119233333Y-76844807D02*
X119271428Y-76920998D01*
X119271428Y-76920998D02*
X119271428Y-77111474D01*
X119271428Y-77111474D02*
X119233333Y-77187664D01*
X119233333Y-77187664D02*
X119195238Y-77225760D01*
X119195238Y-77225760D02*
X119119047Y-77263855D01*
X119119047Y-77263855D02*
X118890476Y-77263855D01*
X118890476Y-77263855D02*
X118814285Y-77225760D01*
X118814285Y-77225760D02*
X118776190Y-77187664D01*
X121290477Y-77263855D02*
X121023810Y-76882902D01*
X120833334Y-77263855D02*
X120833334Y-76463855D01*
X120833334Y-76463855D02*
X121138096Y-76463855D01*
X121138096Y-76463855D02*
X121214286Y-76501950D01*
X121214286Y-76501950D02*
X121252381Y-76540045D01*
X121252381Y-76540045D02*
X121290477Y-76616236D01*
X121290477Y-76616236D02*
X121290477Y-76730521D01*
X121290477Y-76730521D02*
X121252381Y-76806712D01*
X121252381Y-76806712D02*
X121214286Y-76844807D01*
X121214286Y-76844807D02*
X121138096Y-76882902D01*
X121138096Y-76882902D02*
X120833334Y-76882902D01*
X121976191Y-76730521D02*
X121976191Y-77263855D01*
X121785715Y-76425760D02*
X121595238Y-76997188D01*
X121595238Y-76997188D02*
X122090477Y-76997188D01*
X123799999Y-90801950D02*
X123723809Y-90763855D01*
X123723809Y-90763855D02*
X123609523Y-90763855D01*
X123609523Y-90763855D02*
X123495237Y-90801950D01*
X123495237Y-90801950D02*
X123419047Y-90878140D01*
X123419047Y-90878140D02*
X123380952Y-90954331D01*
X123380952Y-90954331D02*
X123342856Y-91106712D01*
X123342856Y-91106712D02*
X123342856Y-91220998D01*
X123342856Y-91220998D02*
X123380952Y-91373379D01*
X123380952Y-91373379D02*
X123419047Y-91449569D01*
X123419047Y-91449569D02*
X123495237Y-91525760D01*
X123495237Y-91525760D02*
X123609523Y-91563855D01*
X123609523Y-91563855D02*
X123685714Y-91563855D01*
X123685714Y-91563855D02*
X123799999Y-91525760D01*
X123799999Y-91525760D02*
X123838095Y-91487664D01*
X123838095Y-91487664D02*
X123838095Y-91220998D01*
X123838095Y-91220998D02*
X123685714Y-91220998D01*
X124180952Y-91563855D02*
X124180952Y-90763855D01*
X124180952Y-90763855D02*
X124638095Y-91563855D01*
X124638095Y-91563855D02*
X124638095Y-90763855D01*
X125019047Y-91563855D02*
X125019047Y-90763855D01*
X125019047Y-90763855D02*
X125209523Y-90763855D01*
X125209523Y-90763855D02*
X125323809Y-90801950D01*
X125323809Y-90801950D02*
X125399999Y-90878140D01*
X125399999Y-90878140D02*
X125438094Y-90954331D01*
X125438094Y-90954331D02*
X125476190Y-91106712D01*
X125476190Y-91106712D02*
X125476190Y-91220998D01*
X125476190Y-91220998D02*
X125438094Y-91373379D01*
X125438094Y-91373379D02*
X125399999Y-91449569D01*
X125399999Y-91449569D02*
X125323809Y-91525760D01*
X125323809Y-91525760D02*
X125209523Y-91563855D01*
X125209523Y-91563855D02*
X125019047Y-91563855D01*
X126314285Y-90763855D02*
X126580952Y-91563855D01*
X126580952Y-91563855D02*
X126847618Y-90763855D01*
X127571428Y-91487664D02*
X127533332Y-91525760D01*
X127533332Y-91525760D02*
X127419047Y-91563855D01*
X127419047Y-91563855D02*
X127342856Y-91563855D01*
X127342856Y-91563855D02*
X127228570Y-91525760D01*
X127228570Y-91525760D02*
X127152380Y-91449569D01*
X127152380Y-91449569D02*
X127114285Y-91373379D01*
X127114285Y-91373379D02*
X127076189Y-91220998D01*
X127076189Y-91220998D02*
X127076189Y-91106712D01*
X127076189Y-91106712D02*
X127114285Y-90954331D01*
X127114285Y-90954331D02*
X127152380Y-90878140D01*
X127152380Y-90878140D02*
X127228570Y-90801950D01*
X127228570Y-90801950D02*
X127342856Y-90763855D01*
X127342856Y-90763855D02*
X127419047Y-90763855D01*
X127419047Y-90763855D02*
X127533332Y-90801950D01*
X127533332Y-90801950D02*
X127571428Y-90840045D01*
X128371428Y-91487664D02*
X128333332Y-91525760D01*
X128333332Y-91525760D02*
X128219047Y-91563855D01*
X128219047Y-91563855D02*
X128142856Y-91563855D01*
X128142856Y-91563855D02*
X128028570Y-91525760D01*
X128028570Y-91525760D02*
X127952380Y-91449569D01*
X127952380Y-91449569D02*
X127914285Y-91373379D01*
X127914285Y-91373379D02*
X127876189Y-91220998D01*
X127876189Y-91220998D02*
X127876189Y-91106712D01*
X127876189Y-91106712D02*
X127914285Y-90954331D01*
X127914285Y-90954331D02*
X127952380Y-90878140D01*
X127952380Y-90878140D02*
X128028570Y-90801950D01*
X128028570Y-90801950D02*
X128142856Y-90763855D01*
X128142856Y-90763855D02*
X128219047Y-90763855D01*
X128219047Y-90763855D02*
X128333332Y-90801950D01*
X128333332Y-90801950D02*
X128371428Y-90840045D01*
X129742856Y-91563855D02*
X129285713Y-91563855D01*
X129514285Y-91563855D02*
X129514285Y-90763855D01*
X129514285Y-90763855D02*
X129438094Y-90878140D01*
X129438094Y-90878140D02*
X129361904Y-90954331D01*
X129361904Y-90954331D02*
X129285713Y-90992426D01*
X130009523Y-90763855D02*
X130199999Y-91563855D01*
X130199999Y-91563855D02*
X130352380Y-90992426D01*
X130352380Y-90992426D02*
X130504761Y-91563855D01*
X130504761Y-91563855D02*
X130695238Y-90763855D01*
D10*
X126714285Y-98704819D02*
X126142857Y-98704819D01*
X126428571Y-98704819D02*
X126428571Y-97704819D01*
X126428571Y-97704819D02*
X126333333Y-97847676D01*
X126333333Y-97847676D02*
X126238095Y-97942914D01*
X126238095Y-97942914D02*
X126142857Y-97990533D01*
X127047619Y-97704819D02*
X127285714Y-98704819D01*
X127285714Y-98704819D02*
X127476190Y-97990533D01*
X127476190Y-97990533D02*
X127666666Y-98704819D01*
X127666666Y-98704819D02*
X127904762Y-97704819D01*
X129947619Y-78254819D02*
X129947619Y-77254819D01*
X130423809Y-78254819D02*
X130423809Y-77254819D01*
X130423809Y-77254819D02*
X130661904Y-77254819D01*
X130661904Y-77254819D02*
X130804761Y-77302438D01*
X130804761Y-77302438D02*
X130899999Y-77397676D01*
X130899999Y-77397676D02*
X130947618Y-77492914D01*
X130947618Y-77492914D02*
X130995237Y-77683390D01*
X130995237Y-77683390D02*
X130995237Y-77826247D01*
X130995237Y-77826247D02*
X130947618Y-78016723D01*
X130947618Y-78016723D02*
X130899999Y-78111961D01*
X130899999Y-78111961D02*
X130804761Y-78207200D01*
X130804761Y-78207200D02*
X130661904Y-78254819D01*
X130661904Y-78254819D02*
X130423809Y-78254819D01*
X131185714Y-78350057D02*
X131947618Y-78350057D01*
X132090476Y-77254819D02*
X132328571Y-78254819D01*
X132328571Y-78254819D02*
X132519047Y-77540533D01*
X132519047Y-77540533D02*
X132709523Y-78254819D01*
X132709523Y-78254819D02*
X132947619Y-77254819D01*
X133328571Y-78254819D02*
X133328571Y-77254819D01*
X133328571Y-77254819D02*
X133709523Y-77254819D01*
X133709523Y-77254819D02*
X133804761Y-77302438D01*
X133804761Y-77302438D02*
X133852380Y-77350057D01*
X133852380Y-77350057D02*
X133899999Y-77445295D01*
X133899999Y-77445295D02*
X133899999Y-77588152D01*
X133899999Y-77588152D02*
X133852380Y-77683390D01*
X133852380Y-77683390D02*
X133804761Y-77731009D01*
X133804761Y-77731009D02*
X133709523Y-77778628D01*
X133709523Y-77778628D02*
X133328571Y-77778628D01*
X112773810Y-98704819D02*
X112773810Y-97704819D01*
X113202381Y-97800057D02*
X113250000Y-97752438D01*
X113250000Y-97752438D02*
X113345238Y-97704819D01*
X113345238Y-97704819D02*
X113583333Y-97704819D01*
X113583333Y-97704819D02*
X113678571Y-97752438D01*
X113678571Y-97752438D02*
X113726190Y-97800057D01*
X113726190Y-97800057D02*
X113773809Y-97895295D01*
X113773809Y-97895295D02*
X113773809Y-97990533D01*
X113773809Y-97990533D02*
X113726190Y-98133390D01*
X113726190Y-98133390D02*
X113154762Y-98704819D01*
X113154762Y-98704819D02*
X113773809Y-98704819D01*
X114773809Y-98609580D02*
X114726190Y-98657200D01*
X114726190Y-98657200D02*
X114583333Y-98704819D01*
X114583333Y-98704819D02*
X114488095Y-98704819D01*
X114488095Y-98704819D02*
X114345238Y-98657200D01*
X114345238Y-98657200D02*
X114250000Y-98561961D01*
X114250000Y-98561961D02*
X114202381Y-98466723D01*
X114202381Y-98466723D02*
X114154762Y-98276247D01*
X114154762Y-98276247D02*
X114154762Y-98133390D01*
X114154762Y-98133390D02*
X114202381Y-97942914D01*
X114202381Y-97942914D02*
X114250000Y-97847676D01*
X114250000Y-97847676D02*
X114345238Y-97752438D01*
X114345238Y-97752438D02*
X114488095Y-97704819D01*
X114488095Y-97704819D02*
X114583333Y-97704819D01*
X114583333Y-97704819D02*
X114726190Y-97752438D01*
X114726190Y-97752438D02*
X114773809Y-97800057D01*
X134869048Y-98704819D02*
X134869048Y-97704819D01*
X134869048Y-97704819D02*
X135250000Y-97704819D01*
X135250000Y-97704819D02*
X135345238Y-97752438D01*
X135345238Y-97752438D02*
X135392857Y-97800057D01*
X135392857Y-97800057D02*
X135440476Y-97895295D01*
X135440476Y-97895295D02*
X135440476Y-98038152D01*
X135440476Y-98038152D02*
X135392857Y-98133390D01*
X135392857Y-98133390D02*
X135345238Y-98181009D01*
X135345238Y-98181009D02*
X135250000Y-98228628D01*
X135250000Y-98228628D02*
X134869048Y-98228628D01*
X135773810Y-97704819D02*
X136011905Y-98704819D01*
X136011905Y-98704819D02*
X136202381Y-97990533D01*
X136202381Y-97990533D02*
X136392857Y-98704819D01*
X136392857Y-98704819D02*
X136630953Y-97704819D01*
X137011905Y-98704819D02*
X137011905Y-97704819D01*
X137011905Y-97704819D02*
X137345238Y-98419104D01*
X137345238Y-98419104D02*
X137678571Y-97704819D01*
X137678571Y-97704819D02*
X137678571Y-98704819D01*
X138678571Y-98704819D02*
X138107143Y-98704819D01*
X138392857Y-98704819D02*
X138392857Y-97704819D01*
X138392857Y-97704819D02*
X138297619Y-97847676D01*
X138297619Y-97847676D02*
X138202381Y-97942914D01*
X138202381Y-97942914D02*
X138107143Y-97990533D01*
D12*
X149175000Y-86100000D02*
G75*
G03*
X148775000Y-86100000I-200000J0D01*
G01*
X148775000Y-86100000D02*
G75*
G03*
X149175000Y-86100000I200000J0D01*
G01*
D13*
X144475000Y-98850000D02*
X144475000Y-87000000D01*
X153475000Y-98850000D02*
X144475000Y-98850000D01*
X153475000Y-92450000D02*
X153475000Y-98850000D01*
X144475000Y-87000000D02*
X147425000Y-87000000D01*
X150425000Y-87000000D02*
X153475000Y-87000000D01*
X153475000Y-87000000D02*
X153475000Y-88850000D01*
D11*
X139730600Y-79542776D02*
X139730600Y-80052224D01*
X140775600Y-79542776D02*
X140775600Y-80052224D01*
X137230600Y-79542776D02*
X137230600Y-80052224D01*
X138275600Y-79542776D02*
X138275600Y-80052224D01*
X132055000Y-95300000D02*
G75*
G03*
X128945000Y-95300000I-1555000J0D01*
G01*
X128945000Y-95300000D02*
G75*
G03*
X132055000Y-95300000I1555000J0D01*
G01*
X128555000Y-95300000D02*
G75*
G03*
X125445000Y-95300000I-1555000J0D01*
G01*
X125445000Y-95300000D02*
G75*
G03*
X128555000Y-95300000I1555000J0D01*
G01*
X124886000Y-96007000D02*
G75*
G03*
X124886645Y-94594267I-1386001J706999D01*
G01*
X123500000Y-96854999D02*
G75*
G03*
X124205955Y-96685514I-2J1555007D01*
G01*
X122793000Y-96685999D02*
G75*
G03*
X123526444Y-96855681I706999J1385994D01*
G01*
X124206999Y-93914001D02*
G75*
G03*
X122794267Y-93913356I-706999J-1385999D01*
G01*
X122114001Y-94593001D02*
G75*
G03*
X122113356Y-96005733I1385999J-706999D01*
G01*
X132310000Y-92440000D02*
X132310000Y-99060000D01*
X131680000Y-94310000D02*
X131604000Y-94386000D01*
X131490000Y-94120000D02*
X131436000Y-94174000D01*
X129565000Y-96425000D02*
X129511000Y-96480000D01*
X129397000Y-96214000D02*
X129321000Y-96290000D01*
X128180000Y-94310000D02*
X128104000Y-94386000D01*
X127990000Y-94120000D02*
X127936000Y-94174000D01*
X126065000Y-96425000D02*
X126011000Y-96480000D01*
X125897000Y-96214000D02*
X125821000Y-96290000D01*
X121690000Y-99060000D02*
X132310000Y-99060000D01*
X121690000Y-97500000D02*
X132310000Y-97500000D01*
X121690000Y-92440000D02*
X132310000Y-92440000D01*
X121690000Y-92440000D02*
X121690000Y-99060000D01*
X121450000Y-99300000D02*
X122950000Y-99300000D01*
X121450000Y-97560000D02*
X121450000Y-99300000D01*
X135043100Y-85953733D02*
X135043100Y-86246267D01*
X136063100Y-85953733D02*
X136063100Y-86246267D01*
G36*
X102329730Y-79859772D02*
G01*
X102382536Y-79859772D01*
X102382536Y-84863202D01*
X102382536Y-89866632D01*
X101300000Y-89866632D01*
X100217464Y-89866632D01*
X100217464Y-88784096D01*
X100456165Y-88784096D01*
X100475064Y-88969851D01*
X100517933Y-89105450D01*
X100550746Y-89187973D01*
X100563659Y-89234253D01*
X100557623Y-89256564D01*
X100533586Y-89267180D01*
X100530508Y-89267999D01*
X100504484Y-89282068D01*
X100489568Y-89315111D01*
X100482875Y-89378904D01*
X100481497Y-89468110D01*
X100481497Y-89655406D01*
X100984008Y-89655406D01*
X101187770Y-89654133D01*
X101346029Y-89649247D01*
X101466049Y-89639142D01*
X101555095Y-89622215D01*
X101620433Y-89596860D01*
X101669326Y-89561473D01*
X101709042Y-89514449D01*
X101724016Y-89491974D01*
X101745052Y-89455526D01*
X101759514Y-89417248D01*
X101768182Y-89367644D01*
X101771838Y-89297221D01*
X101771265Y-89196483D01*
X101767243Y-89055935D01*
X101765081Y-88993180D01*
X101759034Y-88848233D01*
X101751895Y-88719784D01*
X101744371Y-88618109D01*
X101737170Y-88553479D01*
X101733712Y-88537722D01*
X101709487Y-88510666D01*
X101655638Y-88497063D01*
X101571234Y-88493659D01*
X101425665Y-88493659D01*
X101444739Y-88824348D01*
X101451870Y-88981482D01*
X101451174Y-89093376D01*
X101441032Y-89167228D01*
X101419825Y-89210238D01*
X101385935Y-89229605D01*
X101352896Y-89232952D01*
X101332437Y-89227246D01*
X101318146Y-89204281D01*
X101308309Y-89155289D01*
X101301210Y-89071504D01*
X101295137Y-88944156D01*
X101294806Y-88935915D01*
X101280491Y-88745819D01*
X101252003Y-88601967D01*
X101205314Y-88498780D01*
X101136391Y-88430678D01*
X101041206Y-88392084D01*
X100915729Y-88377417D01*
X100891014Y-88376901D01*
X100726897Y-88389683D01*
X100604311Y-88433682D01*
X100520298Y-88511669D01*
X100471903Y-88626412D01*
X100456167Y-88780679D01*
X100456165Y-88784096D01*
X100217464Y-88784096D01*
X100217464Y-87952995D01*
X100455094Y-87952995D01*
X100457138Y-88066915D01*
X100462547Y-88170735D01*
X100470235Y-88244932D01*
X100471838Y-88253941D01*
X100483600Y-88301299D01*
X100503954Y-88325434D01*
X100547194Y-88332920D01*
X100627617Y-88330336D01*
X100636859Y-88329850D01*
X100785135Y-88322038D01*
X100798337Y-88137214D01*
X100811539Y-87952391D01*
X100891014Y-87950485D01*
X101121778Y-87944952D01*
X101432017Y-87937514D01*
X101432017Y-88083570D01*
X101432017Y-88229626D01*
X101590437Y-88229626D01*
X101748857Y-88229626D01*
X101748857Y-88084408D01*
X101748857Y-87939189D01*
X101894075Y-87939189D01*
X102039293Y-87939189D01*
X102039293Y-87742361D01*
X102039293Y-87545532D01*
X101940281Y-87528829D01*
X101841317Y-87510251D01*
X101783775Y-87492068D01*
X101756670Y-87468180D01*
X101749020Y-87432488D01*
X101748857Y-87422545D01*
X101745267Y-87386932D01*
X101726243Y-87367703D01*
X101679403Y-87359837D01*
X101592367Y-87358316D01*
X101590437Y-87358316D01*
X101502638Y-87359714D01*
X101455236Y-87367351D01*
X101435830Y-87386395D01*
X101432020Y-87422011D01*
X101432017Y-87424325D01*
X101432017Y-87490333D01*
X101095374Y-87491823D01*
X100914909Y-87495509D01*
X100778509Y-87506261D01*
X100677653Y-87526344D01*
X100603816Y-87558026D01*
X100548478Y-87603572D01*
X100515415Y-87646057D01*
X100483985Y-87701575D01*
X100465577Y-87762901D01*
X100457012Y-87846208D01*
X100455094Y-87952995D01*
X100217464Y-87952995D01*
X100217464Y-85906133D01*
X100481497Y-85906133D01*
X100481497Y-86117360D01*
X100481497Y-86328586D01*
X100928256Y-86328586D01*
X101375014Y-86328586D01*
X101388534Y-86401196D01*
X101413148Y-86530827D01*
X101427823Y-86626774D01*
X101426573Y-86694080D01*
X101403409Y-86737786D01*
X101352346Y-86762936D01*
X101267394Y-86774571D01*
X101142566Y-86777734D01*
X100971877Y-86777467D01*
X100941776Y-86777443D01*
X100481497Y-86777443D01*
X100481497Y-87003853D01*
X100481497Y-87230263D01*
X101002963Y-87221681D01*
X101207165Y-87217143D01*
X101365632Y-87209896D01*
X101485428Y-87198158D01*
X101573616Y-87180149D01*
X101590437Y-87173261D01*
X101637259Y-87154089D01*
X101683422Y-87118196D01*
X101719167Y-87070691D01*
X101738327Y-87036309D01*
X101765052Y-86944779D01*
X101773662Y-86822002D01*
X101765301Y-86685901D01*
X101741109Y-86554399D01*
X101702232Y-86445418D01*
X101700424Y-86441852D01*
X101661793Y-86364417D01*
X101647466Y-86322671D01*
X101657100Y-86305601D01*
X101690348Y-86302196D01*
X101696050Y-86302183D01*
X101723049Y-86297506D01*
X101738891Y-86276179D01*
X101746493Y-86227260D01*
X101748774Y-86139804D01*
X101748857Y-86104158D01*
X101748857Y-85906133D01*
X101115177Y-85906133D01*
X100481497Y-85906133D01*
X100217464Y-85906133D01*
X100217464Y-84863202D01*
X100217464Y-84808891D01*
X100459694Y-84808891D01*
X100468727Y-84932146D01*
X100487960Y-85052821D01*
X100515779Y-85153184D01*
X100529610Y-85184965D01*
X100562888Y-85252141D01*
X100572298Y-85286824D01*
X100558336Y-85303376D01*
X100533984Y-85312160D01*
X100506053Y-85327504D01*
X100490141Y-85359535D01*
X100483031Y-85420588D01*
X100481497Y-85513345D01*
X100481497Y-85697871D01*
X101035517Y-85689788D01*
X101589536Y-85681705D01*
X101675797Y-85595100D01*
X101762058Y-85508495D01*
X101759009Y-85089582D01*
X101757435Y-84904922D01*
X101754304Y-84766426D01*
X101747422Y-84667457D01*
X101734593Y-84601375D01*
X101713621Y-84561543D01*
X101682310Y-84541322D01*
X101638464Y-84534073D01*
X101579888Y-84533159D01*
X101574966Y-84533160D01*
X101428484Y-84533160D01*
X101436851Y-84896206D01*
X101445218Y-85259252D01*
X101375986Y-85267280D01*
X101306754Y-85275309D01*
X101295314Y-84976414D01*
X101280896Y-84786167D01*
X101251191Y-84642434D01*
X101201802Y-84540057D01*
X101128336Y-84473878D01*
X101026396Y-84438742D01*
X100891590Y-84429489D01*
X100831109Y-84431671D01*
X100685129Y-84452413D01*
X100579496Y-84498543D01*
X100506064Y-84574542D01*
X100478687Y-84625572D01*
X100462476Y-84700788D01*
X100459694Y-84808891D01*
X100217464Y-84808891D01*
X100217464Y-84131657D01*
X100452199Y-84131657D01*
X100459566Y-84235165D01*
X100471120Y-84280169D01*
X100495604Y-84305375D01*
X100551538Y-84318421D01*
X100642742Y-84321934D01*
X100798337Y-84321934D01*
X100798337Y-84234803D01*
X100807412Y-84164838D01*
X100829313Y-84116717D01*
X100830021Y-84115988D01*
X100858201Y-84105176D01*
X100891590Y-84100740D01*
X100921112Y-84096818D01*
X101022604Y-84090738D01*
X101166527Y-84086757D01*
X101356731Y-84084697D01*
X101516507Y-84084304D01*
X102171310Y-84084304D01*
X102171310Y-83873077D01*
X102171310Y-83661851D01*
X101457572Y-83661851D01*
X101221848Y-83662403D01*
X101032889Y-83664753D01*
X100884658Y-83669941D01*
X100771119Y-83679005D01*
X100686235Y-83692986D01*
X100623970Y-83712924D01*
X100578287Y-83739856D01*
X100543151Y-83774825D01*
X100512523Y-83818868D01*
X100508577Y-83825282D01*
X100478517Y-83904700D01*
X100459121Y-84014163D01*
X100452199Y-84131657D01*
X100217464Y-84131657D01*
X100217464Y-81971296D01*
X100481497Y-81971296D01*
X100481497Y-82196095D01*
X100481497Y-82420894D01*
X100719127Y-82420894D01*
X100956757Y-82420894D01*
X100957337Y-82783940D01*
X100960806Y-82974797D01*
X100972352Y-83120921D01*
X100994721Y-83230117D01*
X101030654Y-83310188D01*
X101082895Y-83368938D01*
X101154190Y-83414171D01*
X101183809Y-83428101D01*
X101247065Y-83452680D01*
X101311280Y-83467766D01*
X101390379Y-83474847D01*
X101498289Y-83475414D01*
X101600442Y-83472665D01*
X101768633Y-83462544D01*
X101893570Y-83442645D01*
X101984456Y-83409264D01*
X102050493Y-83358697D01*
X102100883Y-83287239D01*
X102111476Y-83266961D01*
X102126910Y-83229987D01*
X102138581Y-83184279D01*
X102146991Y-83122413D01*
X102152646Y-83036966D01*
X102156048Y-82920512D01*
X102157700Y-82765629D01*
X102158108Y-82579314D01*
X102158108Y-81985239D01*
X101319803Y-81978268D01*
X100481497Y-81971296D01*
X100217464Y-81971296D01*
X100217464Y-81787214D01*
X100296674Y-81787214D01*
X100481497Y-81787214D01*
X101313202Y-81787214D01*
X102171310Y-81787214D01*
X102329730Y-81787214D01*
X102329730Y-80863098D01*
X102329730Y-79938981D01*
X101313202Y-79938981D01*
X100296674Y-79938981D01*
X100296674Y-80863098D01*
X100296674Y-81787214D01*
X100217464Y-81787214D01*
X100217464Y-79859772D01*
X101300000Y-79859772D01*
X102329730Y-79859772D01*
G37*
G36*
X101533178Y-80111456D02*
G01*
X101718939Y-80117467D01*
X101862674Y-80133816D01*
X101969774Y-80165683D01*
X102045628Y-80218249D01*
X102095627Y-80296694D01*
X102125161Y-80406196D01*
X102139621Y-80551937D01*
X102144396Y-80739097D01*
X102144866Y-80922505D01*
X102144907Y-81443971D01*
X101986487Y-81443971D01*
X101828067Y-81443971D01*
X101828067Y-81023015D01*
X101828453Y-80852087D01*
X101825102Y-80724889D01*
X101811254Y-80634987D01*
X101780146Y-80575950D01*
X101725017Y-80541343D01*
X101639104Y-80524736D01*
X101515646Y-80519693D01*
X101347880Y-80519784D01*
X101299172Y-80519855D01*
X101124260Y-80521190D01*
X100995156Y-80526287D01*
X100904905Y-80536786D01*
X100846551Y-80554322D01*
X100813138Y-80580536D01*
X100797710Y-80617064D01*
X100794657Y-80638670D01*
X100792981Y-80688438D01*
X100792592Y-80775129D01*
X100793516Y-80882873D01*
X100794153Y-80922505D01*
X100798337Y-81153534D01*
X100983160Y-81153534D01*
X101167983Y-81153534D01*
X101167983Y-81008316D01*
X101167983Y-80863098D01*
X101300000Y-80863098D01*
X101432017Y-80863098D01*
X101432017Y-81219543D01*
X101432017Y-81575988D01*
X100973750Y-81575988D01*
X100515483Y-81575988D01*
X100498311Y-81391218D01*
X100490935Y-81295286D01*
X100482821Y-81162598D01*
X100474853Y-81009180D01*
X100467916Y-80851058D01*
X100466605Y-80816945D01*
X100461497Y-80661883D01*
X100460107Y-80549051D01*
X100463229Y-80467956D01*
X100471652Y-80408105D01*
X100486169Y-80359001D01*
X100504315Y-80316980D01*
X100536796Y-80254538D01*
X100572537Y-80206100D01*
X100618346Y-80169899D01*
X100681031Y-80144170D01*
X100767400Y-80127147D01*
X100884262Y-80117063D01*
X101038426Y-80112154D01*
X101236699Y-80110653D01*
X101300000Y-80110603D01*
X101533178Y-80111456D01*
G37*
G36*
X101828067Y-82656805D02*
G01*
X101825227Y-82771649D01*
X101817656Y-82873357D01*
X101806780Y-82945132D01*
X101802317Y-82960444D01*
X101786278Y-82994441D01*
X101761962Y-83014617D01*
X101717045Y-83024564D01*
X101639200Y-83027875D01*
X101569968Y-83028171D01*
X101453697Y-83023997D01*
X101370322Y-83012391D01*
X101331684Y-82996487D01*
X101314973Y-82951150D01*
X101304321Y-82856556D01*
X101300066Y-82715945D01*
X101300000Y-82692848D01*
X101300000Y-82420894D01*
X101564033Y-82420894D01*
X101828067Y-82420894D01*
X101828067Y-82656805D01*
G37*
G36*
X100921621Y-88817658D02*
G01*
X100963487Y-88845239D01*
X100967134Y-88852264D01*
X100975507Y-88899479D01*
X100981306Y-88980721D01*
X100983160Y-89065244D01*
X100982288Y-89157185D01*
X100976337Y-89207705D01*
X100960304Y-89228188D01*
X100929185Y-89230021D01*
X100911595Y-89228105D01*
X100847997Y-89201884D01*
X100821815Y-89153742D01*
X100809220Y-89083716D01*
X100802438Y-88997494D01*
X100801803Y-88913539D01*
X100807647Y-88850312D01*
X100815939Y-88828101D01*
X100862935Y-88810427D01*
X100921621Y-88817658D01*
G37*
G36*
X100921621Y-84857159D02*
G01*
X100963487Y-84884740D01*
X100967134Y-84891765D01*
X100975547Y-84939085D01*
X100981350Y-85020281D01*
X100983160Y-85102991D01*
X100982229Y-85194452D01*
X100975850Y-85245141D01*
X100958642Y-85267091D01*
X100925227Y-85272337D01*
X100907405Y-85272453D01*
X100856271Y-85265967D01*
X100830012Y-85236356D01*
X100815284Y-85173441D01*
X100802939Y-85070593D01*
X100799291Y-84974618D01*
X100804305Y-84901194D01*
X100815939Y-84867602D01*
X100862935Y-84849928D01*
X100921621Y-84857159D01*
G37*
X131253100Y-78797500D02*
G75*
G03*
X130553100Y-79497500I0J-700000D01*
G01*
X130553100Y-80097500D02*
G75*
G03*
X131253100Y-80797500I700000J0D01*
G01*
X133353100Y-79497500D02*
G75*
G03*
X132653100Y-78797500I-699999J1D01*
G01*
X132653100Y-80797500D02*
G75*
G03*
X133353100Y-80097500I1J699999D01*
G01*
X130553100Y-80097500D02*
X130553100Y-79497500D01*
X131253100Y-78797500D02*
X132653100Y-78797500D01*
X132653100Y-80797500D02*
X131253100Y-80797500D01*
X133353100Y-79497500D02*
X133353100Y-80097500D01*
X120555000Y-95300000D02*
G75*
G03*
X117445000Y-95300000I-1555000J0D01*
G01*
X117445000Y-95300000D02*
G75*
G03*
X120555000Y-95300000I1555000J0D01*
G01*
X117055000Y-95300000D02*
G75*
G03*
X113945000Y-95300000I-1555000J0D01*
G01*
X113945000Y-95300000D02*
G75*
G03*
X117055000Y-95300000I1555000J0D01*
G01*
X113555000Y-95300000D02*
G75*
G03*
X110445000Y-95300000I-1555000J0D01*
G01*
X110445000Y-95300000D02*
G75*
G03*
X113555000Y-95300000I1555000J0D01*
G01*
X109886000Y-96007000D02*
G75*
G03*
X109886645Y-94594267I-1386001J706999D01*
G01*
X108500000Y-96854999D02*
G75*
G03*
X109205955Y-96685514I-2J1555007D01*
G01*
X107793000Y-96685999D02*
G75*
G03*
X108526444Y-96855681I706999J1385994D01*
G01*
X109206999Y-93914001D02*
G75*
G03*
X107794267Y-93913356I-706999J-1385999D01*
G01*
X107114001Y-94593001D02*
G75*
G03*
X107113356Y-96005733I1385999J-706999D01*
G01*
X120810000Y-92440000D02*
X120810000Y-99060000D01*
X120180000Y-94310000D02*
X120104000Y-94386000D01*
X119990000Y-94120000D02*
X119936000Y-94174000D01*
X118065000Y-96425000D02*
X118011000Y-96480000D01*
X117897000Y-96214000D02*
X117821000Y-96290000D01*
X116680000Y-94310000D02*
X116604000Y-94386000D01*
X116490000Y-94120000D02*
X116436000Y-94174000D01*
X114565000Y-96425000D02*
X114511000Y-96480000D01*
X114397000Y-96214000D02*
X114321000Y-96290000D01*
X113180000Y-94310000D02*
X113104000Y-94386000D01*
X112990000Y-94120000D02*
X112936000Y-94174000D01*
X111065000Y-96425000D02*
X111011000Y-96480000D01*
X110897000Y-96214000D02*
X110821000Y-96290000D01*
X106690000Y-99060000D02*
X120810000Y-99060000D01*
X106690000Y-97500000D02*
X120810000Y-97500000D01*
X106690000Y-92440000D02*
X120810000Y-92440000D01*
X106690000Y-92440000D02*
X106690000Y-99060000D01*
X106450000Y-99300000D02*
X107950000Y-99300000D01*
X106450000Y-97560000D02*
X106450000Y-99300000D01*
X124850000Y-84530000D02*
X107010000Y-84530000D01*
X107010000Y-81870000D02*
X107010000Y-84530000D01*
X124850000Y-81870000D02*
X124850000Y-84530000D01*
X124850000Y-81870000D02*
X107010000Y-81870000D01*
X126120000Y-81870000D02*
X127450000Y-81870000D01*
X127450000Y-81870000D02*
X127450000Y-83200000D01*
X111220000Y-87270000D02*
X118900000Y-87270000D01*
X118900000Y-89930000D02*
X118900000Y-87270000D01*
X111220000Y-89930000D02*
X111220000Y-87270000D01*
X111220000Y-89930000D02*
X118900000Y-89930000D01*
X109950000Y-89930000D02*
X108620000Y-89930000D01*
X108620000Y-89930000D02*
X108620000Y-88600000D01*
D14*
X163881900Y-82362700D02*
X157785900Y-82362700D01*
X157785900Y-82362700D02*
X157785900Y-85485925D01*
X157785900Y-87164275D02*
X157785900Y-92827500D01*
X163881900Y-92827500D02*
X163881900Y-82362700D01*
X157785900Y-92827500D02*
X163881900Y-92827500D01*
D11*
X109640000Y-77570000D02*
X122400000Y-77570000D01*
X122400000Y-80230000D02*
X122400000Y-77570000D01*
X109640000Y-80230000D02*
X109640000Y-77570000D01*
X109640000Y-80230000D02*
X122400000Y-80230000D01*
X108370000Y-80230000D02*
X107040000Y-80230000D01*
X107040000Y-80230000D02*
X107040000Y-78900000D01*
D15*
X137397200Y-88132000D02*
G75*
G03*
X137067000Y-88132000I-165100J0D01*
G01*
X137067000Y-88132000D02*
G75*
G03*
X137397200Y-88132000I165100J0D01*
G01*
D11*
X125745000Y-87270000D02*
X130885000Y-87270000D01*
X130885000Y-89930000D02*
X130885000Y-87270000D01*
X125745000Y-89930000D02*
X125745000Y-87270000D01*
X125745000Y-89930000D02*
X130885000Y-89930000D01*
X124475000Y-89930000D02*
X123145000Y-89930000D01*
X123145000Y-89930000D02*
X123145000Y-88600000D01*
X142230600Y-79542776D02*
X142230600Y-80052224D01*
X143275600Y-79542776D02*
X143275600Y-80052224D01*
X140055000Y-95300000D02*
G75*
G03*
X136945000Y-95300000I-1555000J0D01*
G01*
X136945000Y-95300000D02*
G75*
G03*
X140055000Y-95300000I1555000J0D01*
G01*
X136386000Y-96007000D02*
G75*
G03*
X136386645Y-94594267I-1386001J706999D01*
G01*
X135000000Y-96854999D02*
G75*
G03*
X135705955Y-96685514I-2J1555007D01*
G01*
X134293000Y-96685999D02*
G75*
G03*
X135026444Y-96855681I706999J1385994D01*
G01*
X135706999Y-93914001D02*
G75*
G03*
X134294267Y-93913356I-706999J-1385999D01*
G01*
X133614001Y-94593001D02*
G75*
G03*
X133613356Y-96005733I1385999J-706999D01*
G01*
X140310000Y-92440000D02*
X140310000Y-99060000D01*
X139680000Y-94310000D02*
X139604000Y-94386000D01*
X139490000Y-94120000D02*
X139436000Y-94174000D01*
X137565000Y-96425000D02*
X137511000Y-96480000D01*
X137397000Y-96214000D02*
X137321000Y-96290000D01*
X133190000Y-99060000D02*
X140310000Y-99060000D01*
X133190000Y-97500000D02*
X140310000Y-97500000D01*
X133190000Y-92440000D02*
X140310000Y-92440000D01*
X133190000Y-92440000D02*
X133190000Y-99060000D01*
X132950000Y-99300000D02*
X134450000Y-99300000D01*
X132950000Y-97560000D02*
X132950000Y-99300000D01*
%LPC*%
D16*
X153675000Y-90700000D03*
D17*
X148975000Y-93700000D03*
X148975000Y-87700000D03*
D18*
X140253100Y-80710000D03*
X140253100Y-78885000D03*
X137753100Y-80710000D03*
X137753100Y-78885000D03*
D19*
X130500000Y-95300000D03*
X127000000Y-95300000D03*
D20*
X123500000Y-95300000D03*
D21*
X135553100Y-86962500D03*
X135553100Y-85237500D03*
D22*
X131303100Y-79797500D03*
D23*
X132603100Y-79797500D03*
D19*
X119000000Y-95300000D03*
X115500000Y-95300000D03*
X112000000Y-95300000D03*
D20*
X108500000Y-95300000D03*
D24*
X108340000Y-83200000D03*
X110880000Y-83200000D03*
X113420000Y-83200000D03*
X115960000Y-83200000D03*
X118500000Y-83200000D03*
X121040000Y-83200000D03*
X123580000Y-83200000D03*
D25*
X126120000Y-83200000D03*
D24*
X117570000Y-88600000D03*
X115030000Y-88600000D03*
X112490000Y-88600000D03*
D25*
X109950000Y-88600000D03*
D26*
X160452900Y-83785100D03*
X160452900Y-86325100D03*
X160452900Y-88865100D03*
X160452900Y-91405100D03*
D27*
X158292899Y-86325100D03*
D24*
X121070000Y-78900000D03*
X118530000Y-78900000D03*
X115990000Y-78900000D03*
X113450000Y-78900000D03*
X110910000Y-78900000D03*
D25*
X108370000Y-78900000D03*
D28*
X138248100Y-83400000D03*
X139518100Y-83400000D03*
X140788100Y-83400000D03*
X142058100Y-83400000D03*
X142058100Y-88800000D03*
X140788100Y-88800000D03*
X139518100Y-88800000D03*
X138248100Y-88800000D03*
D24*
X129555000Y-88600000D03*
X127015000Y-88600000D03*
D25*
X124475000Y-88600000D03*
D18*
X142753100Y-80710000D03*
X142753100Y-78885000D03*
D19*
X138500000Y-95300000D03*
D20*
X135000000Y-95300000D03*
D24*
X156630000Y-72165000D03*
X156630000Y-74705000D03*
X154090000Y-72165000D03*
X154090000Y-74705000D03*
X151550000Y-72165000D03*
X151550000Y-74705000D03*
X149010000Y-72165000D03*
X149010000Y-74705000D03*
X146470000Y-72165000D03*
X146470000Y-74705000D03*
X143930000Y-72165000D03*
X143930000Y-74705000D03*
X141390000Y-72165000D03*
X141390000Y-74705000D03*
X138850000Y-72165000D03*
X138850000Y-74705000D03*
X136310000Y-72165000D03*
X136310000Y-74705000D03*
X133770000Y-72165000D03*
X133770000Y-74705000D03*
X131230000Y-72165000D03*
X131230000Y-74705000D03*
X128690000Y-72165000D03*
X128690000Y-74705000D03*
X126150000Y-72165000D03*
X126150000Y-74705000D03*
X123610000Y-72165000D03*
X123610000Y-74705000D03*
X121070000Y-72165000D03*
X121070000Y-74705000D03*
X118530000Y-72165000D03*
X118530000Y-74705000D03*
X115990000Y-72165000D03*
X115990000Y-74705000D03*
X113450000Y-72165000D03*
X113450000Y-74705000D03*
X110910000Y-72165000D03*
X110910000Y-74705000D03*
X108370000Y-72165000D03*
D25*
X108370000Y-74705000D03*
%LPD*%
M02*
