M48
; DRILL file {KiCad 7.0.11-7.0.11~ubuntu22.04.1} date So 23 Jun 2024 17:04:03 CEST
; FORMAT={-:-/ absolute / metric / decimal}
; #@! TF.CreationDate,2024-06-23T17:04:03+02:00
; #@! TF.GenerationSoftware,Kicad,Pcbnew,7.0.11-7.0.11~ubuntu22.04.1
; #@! TF.FileFunction,Plated,1,2,PTH
FMAT,2
METRIC
; #@! TA.AperFunction,Plated,PTH,ViaDrill
T1C0.300
; #@! TA.AperFunction,Plated,PTH,ViaDrill
T2C0.600
; #@! TA.AperFunction,Plated,PTH,ComponentDrill
T3C1.000
; #@! TA.AperFunction,Plated,PTH,ComponentDrill
T4C1.067
; #@! TA.AperFunction,Plated,PTH,ComponentDrill
T5C1.200
; #@! TA.AperFunction,Plated,PTH,ComponentDrill
T6C1.295
%
G90
G05
T1
X104.346Y-76.698
X104.843Y-71.44
X113.81Y-80.273
X116.3Y-90.624
X116.432Y-84.947
X119.611Y-79.799
X128.055Y-85.68
X129.6Y-82.434
X130.192Y-78.726
X131.181Y-87.284
X131.887Y-76.603
X133.11Y-76.345
X133.79Y-84.189
X134.496Y-80.581
X136.217Y-76.207
X139.103Y-80.639
X142.227Y-77.292
X151.765Y-81.89
T2
X101.437Y-76.698
X155.147Y-85.096
X155.306Y-82.348
T3
X108.34Y-83.2
X108.37Y-72.165
X108.37Y-74.705
X108.37Y-78.9
X109.95Y-88.6
X110.88Y-83.2
X110.91Y-72.165
X110.91Y-74.705
X110.91Y-78.9
X112.49Y-88.6
X113.42Y-83.2
X113.45Y-72.165
X113.45Y-74.705
X113.45Y-78.9
X115.03Y-88.6
X115.96Y-83.2
X115.99Y-72.165
X115.99Y-74.705
X115.99Y-78.9
X117.57Y-88.6
X118.5Y-83.2
X118.53Y-72.165
X118.53Y-74.705
X118.53Y-78.9
X121.04Y-83.2
X121.07Y-72.165
X121.07Y-74.705
X121.07Y-78.9
X123.58Y-83.2
X123.61Y-72.165
X123.61Y-74.705
X124.475Y-88.6
X126.12Y-83.2
X126.15Y-72.165
X126.15Y-74.705
X127.015Y-88.6
X128.69Y-72.165
X128.69Y-74.705
X129.555Y-88.6
X131.23Y-72.165
X131.23Y-74.705
X133.77Y-72.165
X133.77Y-74.705
X136.31Y-72.165
X136.31Y-74.705
X138.85Y-72.165
X138.85Y-74.705
X141.39Y-72.165
X141.39Y-74.705
X143.93Y-72.165
X143.93Y-74.705
X146.47Y-72.165
X146.47Y-74.705
X149.01Y-72.165
X149.01Y-74.705
X151.55Y-72.165
X151.55Y-74.705
X154.09Y-72.165
X154.09Y-74.705
X156.63Y-72.165
X156.63Y-74.705
T4
X160.453Y-83.785
X160.453Y-86.325
X160.453Y-88.865
X160.453Y-91.405
T5
X108.5Y-95.3
X112.0Y-95.3
X115.5Y-95.3
X119.0Y-95.3
X123.5Y-95.3
X127.0Y-95.3
X130.5Y-95.3
X135.0Y-95.3
X138.5Y-95.3
T6
X158.293Y-86.325
T3
X149.275Y-87.7G85X148.675Y-87.7
G05
X149.275Y-93.7G85X148.675Y-93.7
G05
X153.675Y-90.4G85X153.675Y-91.0
G05
M30
