G04 #@! TF.GenerationSoftware,KiCad,Pcbnew,7.0.11-7.0.11~ubuntu22.04.1*
G04 #@! TF.CreationDate,2024-06-23T17:04:06+02:00*
G04 #@! TF.ProjectId,RaspiZeroHat_12v_v2.5c,52617370-695a-4657-926f-4861745f3132,rev?*
G04 #@! TF.SameCoordinates,Original*
G04 #@! TF.FileFunction,Soldermask,Top*
G04 #@! TF.FilePolarity,Negative*
%FSLAX46Y46*%
G04 Gerber Fmt 4.6, Leading zero omitted, Abs format (unit mm)*
G04 Created by KiCad (PCBNEW 7.0.11-7.0.11~ubuntu22.04.1) date 2024-06-23 17:04:06*
%MOMM*%
%LPD*%
G01*
G04 APERTURE LIST*
G04 Aperture macros list*
%AMRoundRect*
0 Rectangle with rounded corners*
0 $1 Rounding radius*
0 $2 $3 $4 $5 $6 $7 $8 $9 X,Y pos of 4 corners*
0 Add a 4 corners polygon primitive as box body*
4,1,4,$2,$3,$4,$5,$6,$7,$8,$9,$2,$3,0*
0 Add four circle primitives for the rounded corners*
1,1,$1+$1,$2,$3*
1,1,$1+$1,$4,$5*
1,1,$1+$1,$6,$7*
1,1,$1+$1,$8,$9*
0 Add four rect primitives between the rounded corners*
20,1,$1+$1,$2,$3,$4,$5,0*
20,1,$1+$1,$4,$5,$6,$7,0*
20,1,$1+$1,$6,$7,$8,$9,0*
20,1,$1+$1,$8,$9,$2,$3,0*%
%AMFreePoly0*
4,1,19,0.000000,0.744911,0.071157,0.744911,0.207708,0.704816,0.327430,0.627875,0.420627,0.520320,0.479746,0.390866,0.500000,0.250000,0.500000,-0.250000,0.479746,-0.390866,0.420627,-0.520320,0.327430,-0.627875,0.207708,-0.704816,0.071157,-0.744911,0.000000,-0.744911,0.000000,-0.750000,-0.500000,-0.750000,-0.500000,0.750000,0.000000,0.750000,0.000000,0.744911,0.000000,0.744911,
$1*%
%AMFreePoly1*
4,1,19,0.500000,-0.750000,0.000000,-0.750000,0.000000,-0.744911,-0.071157,-0.744911,-0.207708,-0.704816,-0.327430,-0.627875,-0.420627,-0.520320,-0.479746,-0.390866,-0.500000,-0.250000,-0.500000,0.250000,-0.479746,0.390866,-0.420627,0.520320,-0.327430,0.627875,-0.207708,0.704816,-0.071157,0.744911,0.000000,0.744911,0.000000,0.750000,0.500000,0.750000,0.500000,-0.750000,0.500000,-0.750000,
$1*%
G04 Aperture macros list end*
%ADD10O,1.712000X3.220000*%
%ADD11O,3.220000X1.712000*%
%ADD12RoundRect,0.237500X-0.237500X0.250000X-0.237500X-0.250000X0.237500X-0.250000X0.237500X0.250000X0*%
%ADD13C,2.300000*%
%ADD14R,2.300000X2.300000*%
%ADD15RoundRect,0.237500X-0.237500X0.300000X-0.237500X-0.300000X0.237500X-0.300000X0.237500X0.300000X0*%
%ADD16FreePoly0,180.000000*%
%ADD17FreePoly1,180.000000*%
%ADD18O,1.700000X1.700000*%
%ADD19R,1.700000X1.700000*%
%ADD20C,1.574800*%
%ADD21C,1.295400*%
%ADD22RoundRect,0.102000X0.300000X-0.700000X0.300000X0.700000X-0.300000X0.700000X-0.300000X-0.700000X0*%
G04 APERTURE END LIST*
D10*
X153675000Y-90700000D03*
D11*
X148975000Y-93700000D03*
X148975000Y-87700000D03*
D12*
X140253100Y-80710000D03*
X140253100Y-78885000D03*
X137753100Y-80710000D03*
X137753100Y-78885000D03*
D13*
X130500000Y-95300000D03*
X127000000Y-95300000D03*
D14*
X123500000Y-95300000D03*
D15*
X135553100Y-86962500D03*
X135553100Y-85237500D03*
D16*
X131303100Y-79797500D03*
D17*
X132603100Y-79797500D03*
D13*
X119000000Y-95300000D03*
X115500000Y-95300000D03*
X112000000Y-95300000D03*
D14*
X108500000Y-95300000D03*
D18*
X108340000Y-83200000D03*
X110880000Y-83200000D03*
X113420000Y-83200000D03*
X115960000Y-83200000D03*
X118500000Y-83200000D03*
X121040000Y-83200000D03*
X123580000Y-83200000D03*
D19*
X126120000Y-83200000D03*
D18*
X117570000Y-88600000D03*
X115030000Y-88600000D03*
X112490000Y-88600000D03*
D19*
X109950000Y-88600000D03*
D20*
X160452900Y-83785100D03*
X160452900Y-86325100D03*
X160452900Y-88865100D03*
X160452900Y-91405100D03*
D21*
X158292899Y-86325100D03*
D18*
X121070000Y-78900000D03*
X118530000Y-78900000D03*
X115990000Y-78900000D03*
X113450000Y-78900000D03*
X110910000Y-78900000D03*
D19*
X108370000Y-78900000D03*
D22*
X138248100Y-83400000D03*
X139518100Y-83400000D03*
X140788100Y-83400000D03*
X142058100Y-83400000D03*
X142058100Y-88800000D03*
X140788100Y-88800000D03*
X139518100Y-88800000D03*
X138248100Y-88800000D03*
D18*
X129555000Y-88600000D03*
X127015000Y-88600000D03*
D19*
X124475000Y-88600000D03*
D12*
X142753100Y-80710000D03*
X142753100Y-78885000D03*
D13*
X138500000Y-95300000D03*
D14*
X135000000Y-95300000D03*
D18*
X156630000Y-72165000D03*
X156630000Y-74705000D03*
X154090000Y-72165000D03*
X154090000Y-74705000D03*
X151550000Y-72165000D03*
X151550000Y-74705000D03*
X149010000Y-72165000D03*
X149010000Y-74705000D03*
X146470000Y-72165000D03*
X146470000Y-74705000D03*
X143930000Y-72165000D03*
X143930000Y-74705000D03*
X141390000Y-72165000D03*
X141390000Y-74705000D03*
X138850000Y-72165000D03*
X138850000Y-74705000D03*
X136310000Y-72165000D03*
X136310000Y-74705000D03*
X133770000Y-72165000D03*
X133770000Y-74705000D03*
X131230000Y-72165000D03*
X131230000Y-74705000D03*
X128690000Y-72165000D03*
X128690000Y-74705000D03*
X126150000Y-72165000D03*
X126150000Y-74705000D03*
X123610000Y-72165000D03*
X123610000Y-74705000D03*
X121070000Y-72165000D03*
X121070000Y-74705000D03*
X118530000Y-72165000D03*
X118530000Y-74705000D03*
X115990000Y-72165000D03*
X115990000Y-74705000D03*
X113450000Y-72165000D03*
X113450000Y-74705000D03*
X110910000Y-72165000D03*
X110910000Y-74705000D03*
X108370000Y-72165000D03*
D19*
X108370000Y-74705000D03*
M02*
