G04 #@! TF.GenerationSoftware,KiCad,Pcbnew,7.0.11-7.0.11~ubuntu22.04.1*
G04 #@! TF.CreationDate,2024-06-23T17:04:06+02:00*
G04 #@! TF.ProjectId,RaspiZeroHat_12v_v2.5c,52617370-695a-4657-926f-4861745f3132,rev?*
G04 #@! TF.SameCoordinates,Original*
G04 #@! TF.FileFunction,Copper,L2,Bot*
G04 #@! TF.FilePolarity,Positive*
%FSLAX46Y46*%
G04 Gerber Fmt 4.6, Leading zero omitted, Abs format (unit mm)*
G04 Created by KiCad (PCBNEW 7.0.11-7.0.11~ubuntu22.04.1) date 2024-06-23 17:04:06*
%MOMM*%
%LPD*%
G01*
G04 APERTURE LIST*
G04 Aperture macros list*
%AMRoundRect*
0 Rectangle with rounded corners*
0 $1 Rounding radius*
0 $2 $3 $4 $5 $6 $7 $8 $9 X,Y pos of 4 corners*
0 Add a 4 corners polygon primitive as box body*
4,1,4,$2,$3,$4,$5,$6,$7,$8,$9,$2,$3,0*
0 Add four circle primitives for the rounded corners*
1,1,$1+$1,$2,$3*
1,1,$1+$1,$4,$5*
1,1,$1+$1,$6,$7*
1,1,$1+$1,$8,$9*
0 Add four rect primitives between the rounded corners*
20,1,$1+$1,$2,$3,$4,$5,0*
20,1,$1+$1,$4,$5,$6,$7,0*
20,1,$1+$1,$6,$7,$8,$9,0*
20,1,$1+$1,$8,$9,$2,$3,0*%
G04 Aperture macros list end*
G04 #@! TA.AperFunction,ComponentPad*
%ADD10O,1.508000X3.016000*%
G04 #@! TD*
G04 #@! TA.AperFunction,ComponentPad*
%ADD11O,3.016000X1.508000*%
G04 #@! TD*
G04 #@! TA.AperFunction,ComponentPad*
%ADD12C,2.300000*%
G04 #@! TD*
G04 #@! TA.AperFunction,ComponentPad*
%ADD13R,2.300000X2.300000*%
G04 #@! TD*
G04 #@! TA.AperFunction,ComponentPad*
%ADD14O,1.700000X1.700000*%
G04 #@! TD*
G04 #@! TA.AperFunction,ComponentPad*
%ADD15R,1.700000X1.700000*%
G04 #@! TD*
G04 #@! TA.AperFunction,ComponentPad*
%ADD16C,1.574800*%
G04 #@! TD*
G04 #@! TA.AperFunction,ComponentPad*
%ADD17C,1.295400*%
G04 #@! TD*
G04 #@! TA.AperFunction,SMDPad,CuDef*
%ADD18R,0.558800X1.460500*%
G04 #@! TD*
G04 #@! TA.AperFunction,SMDPad,CuDef*
%ADD19RoundRect,0.237500X0.237500X-0.250000X0.237500X0.250000X-0.237500X0.250000X-0.237500X-0.250000X0*%
G04 #@! TD*
G04 #@! TA.AperFunction,SMDPad,CuDef*
%ADD20RoundRect,0.237500X0.250000X0.237500X-0.250000X0.237500X-0.250000X-0.237500X0.250000X-0.237500X0*%
G04 #@! TD*
G04 #@! TA.AperFunction,SMDPad,CuDef*
%ADD21RoundRect,0.237500X-0.237500X0.250000X-0.237500X-0.250000X0.237500X-0.250000X0.237500X0.250000X0*%
G04 #@! TD*
G04 #@! TA.AperFunction,SMDPad,CuDef*
%ADD22R,1.460500X0.558800*%
G04 #@! TD*
G04 #@! TA.AperFunction,SMDPad,CuDef*
%ADD23RoundRect,0.250000X-0.650000X0.412500X-0.650000X-0.412500X0.650000X-0.412500X0.650000X0.412500X0*%
G04 #@! TD*
G04 #@! TA.AperFunction,ViaPad*
%ADD24C,0.600000*%
G04 #@! TD*
G04 #@! TA.AperFunction,ViaPad*
%ADD25C,0.900000*%
G04 #@! TD*
G04 #@! TA.AperFunction,Conductor*
%ADD26C,0.500000*%
G04 #@! TD*
G04 #@! TA.AperFunction,Conductor*
%ADD27C,0.200000*%
G04 #@! TD*
G04 #@! TA.AperFunction,Conductor*
%ADD28C,1.000000*%
G04 #@! TD*
G04 APERTURE END LIST*
D10*
X153675000Y-90700000D03*
D11*
X148975000Y-93700000D03*
X148975000Y-87700000D03*
D12*
X130500000Y-95300000D03*
X127000000Y-95300000D03*
D13*
X123500000Y-95300000D03*
D12*
X119000000Y-95300000D03*
X115500000Y-95300000D03*
X112000000Y-95300000D03*
D13*
X108500000Y-95300000D03*
D14*
X108340000Y-83200000D03*
X110880000Y-83200000D03*
X113420000Y-83200000D03*
X115960000Y-83200000D03*
X118500000Y-83200000D03*
X121040000Y-83200000D03*
X123580000Y-83200000D03*
D15*
X126120000Y-83200000D03*
D14*
X117570000Y-88600000D03*
X115030000Y-88600000D03*
X112490000Y-88600000D03*
D15*
X109950000Y-88600000D03*
D16*
X160452900Y-83785100D03*
X160452900Y-86325100D03*
X160452900Y-88865100D03*
X160452900Y-91405100D03*
D17*
X158292899Y-86325100D03*
D14*
X121070000Y-78900000D03*
X118530000Y-78900000D03*
X115990000Y-78900000D03*
X113450000Y-78900000D03*
X110910000Y-78900000D03*
D15*
X108370000Y-78900000D03*
D14*
X129555000Y-88600000D03*
X127015000Y-88600000D03*
D15*
X124475000Y-88600000D03*
D12*
X138500000Y-95300000D03*
D13*
X135000000Y-95300000D03*
D14*
X156630000Y-72165000D03*
X156630000Y-74705000D03*
X154090000Y-72165000D03*
X154090000Y-74705000D03*
X151550000Y-72165000D03*
X151550000Y-74705000D03*
X149010000Y-72165000D03*
X149010000Y-74705000D03*
X146470000Y-72165000D03*
X146470000Y-74705000D03*
X143930000Y-72165000D03*
X143930000Y-74705000D03*
X141390000Y-72165000D03*
X141390000Y-74705000D03*
X138850000Y-72165000D03*
X138850000Y-74705000D03*
X136310000Y-72165000D03*
X136310000Y-74705000D03*
X133770000Y-72165000D03*
X133770000Y-74705000D03*
X131230000Y-72165000D03*
X131230000Y-74705000D03*
X128690000Y-72165000D03*
X128690000Y-74705000D03*
X126150000Y-72165000D03*
X126150000Y-74705000D03*
X123610000Y-72165000D03*
X123610000Y-74705000D03*
X121070000Y-72165000D03*
X121070000Y-74705000D03*
X118530000Y-72165000D03*
X118530000Y-74705000D03*
X115990000Y-72165000D03*
X115990000Y-74705000D03*
X113450000Y-72165000D03*
X113450000Y-74705000D03*
X110910000Y-72165000D03*
X110910000Y-74705000D03*
X108370000Y-72165000D03*
D15*
X108370000Y-74705000D03*
D18*
X153805000Y-83824150D03*
X152535000Y-83824150D03*
X151265000Y-83824150D03*
X149995000Y-83824150D03*
X149995000Y-78375850D03*
X151265000Y-78375850D03*
X152535000Y-78375850D03*
X153805000Y-78375850D03*
D19*
X157400000Y-81887500D03*
X157400000Y-83712500D03*
D20*
X135787500Y-81100000D03*
X137612500Y-81100000D03*
D21*
X146400000Y-82012500D03*
X146400000Y-80187500D03*
D20*
X127687500Y-92000000D03*
X129512500Y-92000000D03*
D22*
X139424150Y-88905000D03*
X139424150Y-87635000D03*
X139424150Y-86365000D03*
X139424150Y-85095000D03*
X133975850Y-85095000D03*
X133975850Y-86365000D03*
X133975850Y-87635000D03*
X133975850Y-88905000D03*
D23*
X145000000Y-91862500D03*
X145000000Y-88737500D03*
D24*
X104843100Y-71440000D03*
D25*
X155306300Y-82348200D03*
X101436900Y-76698200D03*
D24*
X116300000Y-90624200D03*
X151764800Y-81889900D03*
X139102700Y-80639300D03*
X134496400Y-80581400D03*
X133790000Y-84188800D03*
X131180900Y-87284000D03*
X131887000Y-76603500D03*
X130192300Y-78726300D03*
X142227200Y-77291900D03*
X129600000Y-82433600D03*
X116431900Y-84947200D03*
X128055200Y-85679700D03*
X113810200Y-80273000D03*
X119611200Y-79798600D03*
D25*
X155147400Y-85096300D03*
D24*
X133110300Y-76345100D03*
X136216900Y-76207100D03*
X104345600Y-76698200D03*
D26*
X155306300Y-82348200D02*
X156939300Y-82348200D01*
X156939300Y-82348200D02*
X157400000Y-81887500D01*
X101436900Y-84054600D02*
X101436900Y-76698200D01*
X112490000Y-94540000D02*
X112490000Y-95053800D01*
X125037100Y-97262900D02*
X127000000Y-95300000D01*
X127015000Y-91327500D02*
X127687500Y-92000000D01*
X112490000Y-94540000D02*
X112490000Y-94810000D01*
X112000000Y-95300000D02*
X110098100Y-97201900D01*
X106598100Y-89215800D02*
X101436900Y-84054600D01*
X127015000Y-88600000D02*
X127015000Y-91327500D01*
X127687500Y-92000000D02*
X127000000Y-92687500D01*
X112490000Y-94810000D02*
X112000000Y-95300000D01*
X112490000Y-95053800D02*
X114699100Y-97262900D01*
X106598100Y-96841700D02*
X106598100Y-89215800D01*
X127000000Y-92687500D02*
X127000000Y-95300000D01*
X112490000Y-88600000D02*
X112490000Y-94540000D01*
X106958300Y-97201900D02*
X106598100Y-96841700D01*
X110098100Y-97201900D02*
X106958300Y-97201900D01*
D27*
X105903900Y-80460700D02*
X105903900Y-71821100D01*
X129512500Y-92000000D02*
X129555000Y-91957500D01*
X130500000Y-92987500D02*
X130500000Y-95300000D01*
X129512500Y-92000000D02*
X130500000Y-92987500D01*
X117169800Y-72641800D02*
X116258500Y-73553100D01*
X117169800Y-71677900D02*
X117169800Y-72641800D01*
X116300000Y-88216300D02*
X112150000Y-84066300D01*
X116300000Y-90624200D02*
X116300000Y-88216300D01*
X129555000Y-91957500D02*
X129555000Y-88600000D01*
X107029500Y-70695500D02*
X116187400Y-70695500D01*
X112150000Y-84066300D02*
X112150000Y-82810900D01*
X116187400Y-70695500D02*
X117169800Y-71677900D01*
X105903900Y-71821100D02*
X107029500Y-70695500D01*
X116258500Y-73553100D02*
X115990000Y-73553100D01*
X133790000Y-84188800D02*
X134492000Y-84890800D01*
X152135000Y-84814900D02*
X152146300Y-84803600D01*
X149995000Y-83824100D02*
X149995000Y-84856200D01*
X152176200Y-84856200D02*
X152135000Y-84815000D01*
X152135000Y-84815000D02*
X152135000Y-84814900D01*
X152146300Y-82844500D02*
X151793700Y-82491900D01*
X151793700Y-82491900D02*
X150295000Y-82491900D01*
X152535000Y-83824100D02*
X152535000Y-84856200D01*
X149995000Y-83824100D02*
X149995000Y-82791900D01*
X152146300Y-84803600D02*
X152146300Y-82844500D01*
X150295000Y-82491900D02*
X149995000Y-82791900D01*
X149243700Y-84856200D02*
X146400000Y-82012500D01*
X149995000Y-84856200D02*
X149243700Y-84856200D01*
X152535000Y-84856200D02*
X152176200Y-84856200D01*
X160012600Y-86325100D02*
X160452900Y-86325100D01*
X157400000Y-83712500D02*
X160012600Y-86325100D01*
X158528000Y-82584500D02*
X157400000Y-83712500D01*
X158528000Y-74063000D02*
X158528000Y-82584500D01*
X156630000Y-72165000D02*
X158528000Y-74063000D01*
X153805000Y-78375800D02*
X153805000Y-79407900D01*
X149995000Y-78375800D02*
X149995000Y-79407900D01*
X151265000Y-78891800D02*
X151265000Y-79407900D01*
X153051100Y-79407900D02*
X153051100Y-80603600D01*
X152535000Y-78891800D02*
X152535000Y-79407900D01*
X153051100Y-79407900D02*
X153805000Y-79407900D01*
X151781100Y-79407900D02*
X152535000Y-79407900D01*
X151265000Y-78375800D02*
X151265000Y-78891800D01*
X152535000Y-78891800D02*
X153051100Y-79407900D01*
X152535000Y-78375800D02*
X152535000Y-78891800D01*
X151265000Y-78891800D02*
X151781100Y-79407900D01*
X149995000Y-79407900D02*
X151265000Y-79407900D01*
X153051100Y-80603600D02*
X151764800Y-81889900D01*
X138908200Y-86365000D02*
X138392100Y-86365000D01*
X138392100Y-88151100D02*
X138392100Y-88905000D01*
X138392100Y-86881100D02*
X138392100Y-87635000D01*
X138500000Y-89313200D02*
X138500000Y-95300000D01*
X138908200Y-87635000D02*
X138392100Y-87635000D01*
X138908200Y-87635000D02*
X138392100Y-88151100D01*
X139424200Y-85095000D02*
X138392100Y-85095000D01*
X138908200Y-88905000D02*
X138392100Y-88905000D01*
X139424200Y-88905000D02*
X138908200Y-88905000D01*
X138908200Y-86365000D02*
X138392100Y-86881100D01*
X139424200Y-87635000D02*
X138908200Y-87635000D01*
X139424200Y-86365000D02*
X138908200Y-86365000D01*
X138392100Y-85095000D02*
X138392100Y-86365000D01*
X138908200Y-88905000D02*
X138500000Y-89313200D01*
D26*
X109950000Y-90201900D02*
X108500000Y-91651900D01*
X124475000Y-90201900D02*
X123500000Y-91176900D01*
X130069500Y-83485500D02*
X136296000Y-77259000D01*
X153805000Y-82013900D02*
X153805000Y-83824100D01*
X156630000Y-74705000D02*
X156630000Y-79188900D01*
X127721900Y-83200000D02*
X128007400Y-83485500D01*
X155147400Y-85096300D02*
X154937500Y-85306200D01*
X138850000Y-74705000D02*
X138850000Y-76306900D01*
X123500000Y-91176900D02*
X123500000Y-95300000D01*
D27*
X115500000Y-95300000D02*
X115030000Y-94830000D01*
X110559800Y-87098800D02*
X113528800Y-87098800D01*
X115030000Y-94830000D02*
X115030000Y-88600000D01*
X104345600Y-76698200D02*
X104345600Y-80884600D01*
X113528800Y-87098800D02*
X115030000Y-88600000D01*
X104345600Y-80884600D02*
X110559800Y-87098800D01*
X114601900Y-77008800D02*
X114601900Y-84480000D01*
X117570000Y-88600000D02*
X117570000Y-87448100D01*
X113450000Y-74705000D02*
X113450000Y-75856900D01*
X117570000Y-89175900D02*
X117570000Y-88600000D01*
X117570000Y-89175900D02*
X117570000Y-89751900D01*
X114601900Y-84480000D02*
X117570000Y-87448100D01*
X117570000Y-89751900D02*
X119000000Y-91181900D01*
X113450000Y-75856900D02*
X114601900Y-77008800D01*
X119000000Y-91181900D02*
X119000000Y-95300000D01*
X133481900Y-73316900D02*
X132618100Y-74180700D01*
X117111900Y-82931400D02*
X117111900Y-83200000D01*
X127588800Y-80050400D02*
X121966600Y-80050400D01*
X119346000Y-80697300D02*
X117111900Y-82931400D01*
X133770000Y-72165000D02*
X133770000Y-73316900D01*
X133770000Y-73316900D02*
X133481900Y-73316900D01*
X121319700Y-80697300D02*
X119346000Y-80697300D01*
X121966600Y-80050400D02*
X121319700Y-80697300D01*
X132618100Y-75021100D02*
X127588800Y-80050400D01*
X115960000Y-83200000D02*
X117111900Y-83200000D01*
X132618100Y-74180700D02*
X132618100Y-75021100D01*
X127538100Y-72165000D02*
X127538100Y-72453100D01*
X130192300Y-78726300D02*
X130192300Y-78298200D01*
X130192300Y-78298200D02*
X131887000Y-76603500D01*
X145290200Y-79077700D02*
X145290200Y-74228100D01*
X145290200Y-74228100D02*
X146201400Y-73316900D01*
X146470000Y-72165000D02*
X146470000Y-73316900D01*
X146400000Y-80187500D02*
X145290200Y-79077700D01*
X146201400Y-73316900D02*
X146470000Y-73316900D01*
X139102700Y-80639300D02*
X138783000Y-80319600D01*
X134758200Y-80319600D02*
X134496400Y-80581400D01*
X138783000Y-80319600D02*
X134758200Y-80319600D01*
X135787500Y-82191300D02*
X133790000Y-84188800D01*
X131531900Y-87635000D02*
X131180900Y-87284000D01*
X134492000Y-84890800D02*
X134492000Y-85095000D01*
X135787500Y-81100000D02*
X135787500Y-82191300D01*
X133975900Y-87635000D02*
X131531900Y-87635000D01*
X133975900Y-85095000D02*
X134492000Y-85095000D01*
X110996400Y-81657300D02*
X107100500Y-81657300D01*
X115990000Y-74705000D02*
X115990000Y-73553100D01*
X107100500Y-81657300D02*
X105903900Y-80460700D01*
X112150000Y-82810900D02*
X110996400Y-81657300D01*
X122458100Y-74705000D02*
X122458100Y-74973500D01*
X123610000Y-74705000D02*
X122458100Y-74705000D01*
X122458100Y-74973500D02*
X119818600Y-77613000D01*
X117141900Y-78611900D02*
X117141900Y-78900000D01*
X115990000Y-78900000D02*
X117141900Y-78900000D01*
X118140800Y-77613000D02*
X117141900Y-78611900D01*
X119818600Y-77613000D02*
X118140800Y-77613000D01*
X143930000Y-74705000D02*
X143930000Y-75856900D01*
X143662200Y-75856900D02*
X142227200Y-77291900D01*
X143930000Y-75856900D02*
X143662200Y-75856900D01*
D26*
X151265000Y-83824100D02*
X151265000Y-85306200D01*
X137794200Y-84028900D02*
X135458100Y-86365000D01*
X107181100Y-80501900D02*
X106768100Y-80088900D01*
X141022800Y-84028900D02*
X137794200Y-84028900D01*
X110910000Y-80501900D02*
X107181100Y-80501900D01*
X127445400Y-84801900D02*
X123580000Y-84801900D01*
X133975900Y-86365000D02*
X135458100Y-86365000D01*
X123580000Y-83200000D02*
X123580000Y-84801900D01*
X130756600Y-84627800D02*
X127619500Y-84627800D01*
X114699100Y-97262900D02*
X125037100Y-97262900D01*
D27*
X135826500Y-76207100D02*
X129600000Y-82433600D01*
X117164400Y-85679700D02*
X116431900Y-84947200D01*
X136216900Y-76207100D02*
X135826500Y-76207100D01*
X128055200Y-85679700D02*
X117164400Y-85679700D01*
X126674300Y-73316900D02*
X125849700Y-73316900D01*
X125849700Y-73316900D02*
X124880000Y-74286600D01*
X119918100Y-78393200D02*
X119918100Y-79491700D01*
D26*
X133975900Y-88905000D02*
X135458100Y-88905000D01*
X124475000Y-88600000D02*
X124475000Y-90201900D01*
X136916200Y-97216200D02*
X135000000Y-95300000D01*
X156630000Y-79188900D02*
X153805000Y-82013900D01*
X126120000Y-83200000D02*
X127721900Y-83200000D01*
X109950000Y-88600000D02*
X109950000Y-90201900D01*
X128007400Y-83485500D02*
X130069500Y-83485500D01*
X136296000Y-77259000D02*
X137897900Y-77259000D01*
X135458100Y-92940000D02*
X135000000Y-93398100D01*
X154937500Y-85306200D02*
X153805000Y-85306200D01*
D27*
X139493200Y-81100000D02*
X146742100Y-81100000D01*
D26*
X151265000Y-85306200D02*
X150831400Y-85739800D01*
X150831400Y-85739800D02*
X142733700Y-85739800D01*
X110910000Y-78900000D02*
X110910000Y-80501900D01*
X132493800Y-86365000D02*
X130756600Y-84627800D01*
X127619500Y-84627800D02*
X127445400Y-84801900D01*
X106768100Y-80088900D02*
X106768100Y-72165000D01*
X142733700Y-85739800D02*
X141022800Y-84028900D01*
X133975900Y-86365000D02*
X132493800Y-86365000D01*
X108370000Y-72165000D02*
X106768100Y-72165000D01*
X135458100Y-88905000D02*
X135458100Y-92940000D01*
X137897900Y-77259000D02*
X138850000Y-76306900D01*
X108500000Y-91651900D02*
X108500000Y-95300000D01*
X139646300Y-97216200D02*
X136916200Y-97216200D01*
X135000000Y-95300000D02*
X135000000Y-93398100D01*
X153805000Y-83824100D02*
X153805000Y-85306200D01*
X145000000Y-91862500D02*
X139646300Y-97216200D01*
D27*
X108006900Y-83200000D02*
X108340000Y-83200000D01*
X105153700Y-71750600D02*
X105153700Y-80346800D01*
X105153700Y-80346800D02*
X108006900Y-83200000D01*
X104843100Y-71440000D02*
X105153700Y-71750600D01*
X118500000Y-83200000D02*
X119651900Y-83200000D01*
X133110300Y-76659500D02*
X133110300Y-76345100D01*
X119651900Y-82933400D02*
X121541900Y-81043400D01*
X128726400Y-81043400D02*
X133110300Y-76659500D01*
X119651900Y-83200000D02*
X119651900Y-82933400D01*
X121541900Y-81043400D02*
X128726400Y-81043400D01*
X136310000Y-74705000D02*
X135158100Y-74705000D01*
X128887300Y-81450800D02*
X135158100Y-75180000D01*
X121040000Y-83200000D02*
X122789200Y-81450800D01*
X122789200Y-81450800D02*
X128887300Y-81450800D01*
X135158100Y-75180000D02*
X135158100Y-74705000D01*
X128690000Y-72165000D02*
X127538100Y-72165000D01*
X124880000Y-74286600D02*
X124880000Y-75071000D01*
X123351500Y-76599500D02*
X121711800Y-76599500D01*
X121711800Y-76599500D02*
X119918100Y-78393200D01*
X113420000Y-80663200D02*
X113420000Y-83200000D01*
X124880000Y-75071000D02*
X123351500Y-76599500D01*
X119918100Y-79491700D02*
X119611200Y-79798600D01*
X127538100Y-72453100D02*
X126674300Y-73316900D01*
X113810200Y-80273000D02*
X113420000Y-80663200D01*
X139352000Y-81241200D02*
X139493200Y-81100000D01*
X146742100Y-81100000D02*
X149010000Y-78832100D01*
X149010000Y-78832100D02*
X149010000Y-74705000D01*
X137612500Y-81100000D02*
X137753700Y-81241200D01*
X137753700Y-81241200D02*
X139352000Y-81241200D01*
D28*
X149248000Y-87972800D02*
X159561000Y-87972800D01*
X147938000Y-88737500D02*
X148975000Y-87700000D01*
X160452900Y-88865100D02*
X160453000Y-88865100D01*
X159561000Y-87972800D02*
X160453000Y-88865100D01*
X145000000Y-88737500D02*
X147938000Y-88737500D01*
X148975000Y-87700000D02*
X149248000Y-87972800D01*
X151975000Y-90700000D02*
X148975000Y-93700000D01*
X160452900Y-91405100D02*
X154380000Y-91405100D01*
X154380000Y-91405100D02*
X153675000Y-90700000D01*
X153675000Y-90700000D02*
X151975000Y-90700000D01*
X146838000Y-93700000D02*
X145000000Y-91862500D01*
X148975000Y-93700000D02*
X146838000Y-93700000D01*
X160453000Y-91405100D02*
X160452900Y-91405100D01*
M02*
